<?xml version="1.0" encoding="UTF-8"?>
<svg width="24px" height="24px" viewBox="0 0 24 24" version="1.1" xmlns="http://www.w3.org/2000/svg" xmlns:xlink="http://www.w3.org/1999/xlink">
    <title>切片</title>
    <g id="页面-1" stroke="none" stroke-width="1" fill="none" fill-rule="evenodd">
        <g id="登录" transform="translate(-978.000000, -334.000000)" fill="#AEB7D0" fill-rule="nonzero">
            <g id="编组-2" transform="translate(966.000000, 317.000000)">
                <g id="icon/工号" transform="translate(12.000000, 17.000000)">
                    <path d="M21.9823537,6.472515 L12.3752156,12.1803146 L3.00756269,6.61261553 C3.09831498,5.15453219 4.27557384,4 5.71500597,4 L19.284994,4 C20.67905,4 21.828579,5.07929301 21.9823537,6.472515 L21.9823537,6.472515 Z" id="路径" opacity="0.402382987"></path>
                    <path d="M22,8.51694503 L22,17.2057727 C22,18.749473 20.7849277,20 19.284994,20 L5.71500597,20 C4.21507231,20 3,18.749473 3,17.2057727 L3,8.66482893 L11.9466631,13.9808659 C12.2542126,14.1624777 12.6247844,14.1287498 12.8919995,13.9263824 C12.904604,13.9211934 12.9146875,13.9134101 12.927292,13.9056267 L22,8.51694503 Z" id="路径"></path>
                </g>
            </g>
        </g>
    </g>
</svg>