<?xml version="1.0" encoding="UTF-8"?>
<svg width="23px" height="23px" viewBox="0 0 23 23" version="1.1" xmlns="http://www.w3.org/2000/svg" xmlns:xlink="http://www.w3.org/1999/xlink">
    <title>切片</title>
    <g id="页面-1" stroke="none" stroke-width="1" fill="none" fill-rule="evenodd">
        <g id="登录" transform="translate(-977.000000, -426.000000)" fill="#AEB7D0" fill-rule="nonzero">
            <g id="编组-3" transform="translate(966.000000, 409.000000)">
                <g id="icon/工号备份" transform="translate(11.823529, 17.812500)">
                    <path d="M16.9912542,8.4609375 C17.7698524,8.46210027 18.4003672,9.04834584 18.4003672,9.77111457 L18.4003672,16.9744482 C18.4003672,18.4210468 17.1370818,19.5937466 15.5787403,19.5937466 L5.70361308,19.5937466 C4.1452716,19.5937466 2.88198575,18.4210468 2.88198575,16.9744482 L2.88198575,9.77111457 C2.88168459,9.42336628 3.03044199,9.08979574 3.29543782,8.84399922 C3.56043364,8.59820269 3.91989025,8.46038 4.29450011,8.4609375 Z M10.7496324,10.6875 L10.5327206,10.6875 C9.98043584,10.6875 9.53272059,11.1352153 9.53272059,11.6875 L9.53272059,15.03125 C9.53272059,15.5835347 9.98043584,16.03125 10.5327206,16.03125 L10.7496324,16.03125 C11.3019171,16.03125 11.7496324,15.5835347 11.7496324,15.03125 L11.7496324,11.6875 C11.7496324,11.1352153 11.3019171,10.6875 10.7496324,10.6875 Z" id="形状结合"></path>
                    <path d="M10.6411769,3.50127837 C12.8263723,3.50316094 14.5972982,5.08756486 14.5994024,7.04260553 L14.5994024,8.45868108 L6.68167908,8.45868108 L6.68167908,7.04146721 C6.68378326,5.08642654 8.45470919,3.50202261 10.6399046,3.50014005 M6.72129406,3.5360541 C5.68215371,4.46617441 5.09856033,5.72751867 5.09889635,7.04260553 L5.09889635,8.45980118 L16.1834553,8.45980118 L16.1834553,7.04260553 C16.1834553,4.30407894 13.7020932,2.0840635 10.6411769,2.0840635 C9.17000077,2.08322805 7.76043442,2.60593379 6.72129406,3.5360541 Z" id="形状" opacity="0.4"></path>
                </g>
            </g>
        </g>
    </g>
</svg>