<?xml version="1.0" encoding="UTF-8"?>
<svg width="18px" height="18px" viewBox="0 0 18 18" version="1.1" xmlns="http://www.w3.org/2000/svg" xmlns:xlink="http://www.w3.org/1999/xlink">
    <title>切片</title>
    <g id="页面-1" stroke="none" stroke-width="1" fill="none" fill-rule="evenodd">
        <g id="工作流-数据" transform="translate(-1379.000000, -28.000000)" fill="currentColor" fill-rule="nonzero">
            <g id="icon/line/历史记录（未选中）备份-4" transform="translate(1379.000000, 28.000000)">
                <g id="duozhonggongneng" transform="translate(3.000000, 2.000000)">
                    <path d="M0.00267958363,9.95857973 C0.00267958363,9.28609823 0.00401937545,8.61361673 0.00133979182,7.94113523 C0,7.67187735 0.0790477172,7.43312652 0.26527878,7.2341675 C0.42739359,7.06173634 0.628362362,6.96225683 0.864165722,6.93307618 C0.932495105,6.92511782 1.00216428,6.92379142 1.07183345,6.92379142 L5.1407812,6.92379142 C5.56281562,6.92379142 5.92455941,7.17050061 6.07193651,7.55382833 C6.11614964,7.66789817 6.13490673,7.78727358 6.13490673,7.90797539 C6.13624652,9.27681347 6.13624652,10.6456516 6.13490673,12.0144896 C6.13490673,12.5052552 5.78656086,12.9058261 5.29753684,12.9827569 C5.24260538,12.9920416 5.18633412,12.9946944 5.13006287,12.9946944 C3.75275688,12.9946944 2.3741111,12.9960208 0.996805112,12.9946944 C0.503761723,12.9946944 0.104503762,12.6644224 0.0160775018,12.1855944 C0.00535916727,12.1245803 0,12.0622398 0,12.0012257 C0.00267958363,11.3234386 0.00267958363,10.6416724 0.00267958363,9.95857973 L0.00267958363,9.95857973 Z M0.987426569,9.96255891 L0.987426569,11.9455172 C0.987426569,12.0197952 0.987426569,12.0197952 1.05977533,12.0197952 L5.0751314,12.0197952 C5.14748016,12.0197952 5.14881995,12.0197952 5.14881995,11.9455172 L5.14881995,7.98092703 C5.14881995,7.90797539 5.14881995,7.906649 5.0751314,7.906649 L1.05977533,7.906649 C0.988766361,7.906649 0.987426569,7.906649 0.987426569,7.97694785 L0.987426569,9.96255891 L0.987426569,9.96255891 Z M6.86507566,9.95725333 C6.86507566,9.28211905 6.86643306,8.60565837 6.86507566,7.93052408 C6.86375348,7.67320374 6.93878182,7.44506406 7.11295476,7.25273701 C7.27506957,7.07234749 7.47871792,6.96756241 7.71988045,6.93572896 C7.78419046,6.9277706 7.84850046,6.92644421 7.91147068,6.92644421 L12.0058745,6.92644421 C12.4841802,6.92644421 12.8780789,7.24477865 12.9772235,7.70503719 C12.9946408,7.78859998 12.9986602,7.87348916 12.9986602,7.95837834 C13,9.29803577 12.9986602,10.6376932 13,11.9773506 C13,12.2479349 12.9222921,12.4893385 12.7347212,12.6896239 C12.5350922,12.8991941 12.285891,13 11.9964959,13 L7.94630527,13 C7.8752963,13 7.80562713,12.9973472 7.73461816,12.9920416 C7.30856436,12.956229 6.92672369,12.5901444 6.8758116,12.1696777 C6.86777285,12.1060108 6.86507566,12.0423439 6.86507566,11.9800034 L6.86507566,9.95725333 Z M9.92919716,12.0184688 L11.9321859,12.0184688 C12.0098938,12.0184688 12.0098938,12.0184688 12.0098938,11.9402116 L12.0098938,7.98490621 C12.0098938,7.9053226 12.0098938,7.9053226 11.9321859,7.9053226 L7.92754818,7.9053226 C7.85118005,7.9053226 7.85118005,7.9053226 7.85118005,7.97960064 L7.85118005,11.9441908 C7.85118005,12.0184688 7.85118005,12.0184688 7.92754818,12.0184688 L9.92919716,12.0184688 L9.92919716,12.0184688 Z M3.06544368,6.06826762 L0.974028651,6.06826762 C0.70071112,6.06826762 0.468927136,5.96746172 0.28001649,5.77513466 C0.0991445945,5.59209236 0.00401937545,5.36925825 0.00401937545,5.11326431 C0.00267958363,3.7285095 0.00133979182,2.34242831 0.00401937545,0.957673504 C0.00535916727,0.433748075 0.440791508,0.00267019088 0.968669484,0.00267019088 C2.36741214,0.00134379739 3.76749459,0.00134379739 5.16623725,0.00267019088 C5.67401834,0.00267019088 6.0906936,0.391303483 6.13088735,0.891353829 C6.13624652,0.951041536 6.13758631,1.01205564 6.13758631,1.07174334 L6.13758631,5.07081972 C6.13758631,5.33079284 6.0571988,5.5629117 5.8776667,5.75523876 C5.69411522,5.95154499 5.46501082,6.06428844 5.19169329,6.06694123 C4.62496135,6.07092041 4.05822941,6.06826762 3.49015768,6.06826762 L3.06544368,6.06826762 Z M3.06544368,5.09336841 L5.07781099,5.09336841 C5.14748016,5.09336841 5.14748016,5.09336841 5.14748016,5.02572234 L5.14748016,1.04123629 C5.14748016,0.974916619 5.14748016,0.974916619 5.08183036,0.974916619 L1.05173658,0.974916619 C0.986086777,0.974916619 0.986086777,0.974916619 0.986086777,1.0399099 L0.986086777,5.02439594 C0.986086777,5.09336841 0.986086777,5.09336841 1.05709574,5.09336841 C1.72699165,5.0946948 2.39688756,5.0946948 3.06544368,5.09336841 Z M12.994665,3.03480571 C13.0013398,4.70208233 11.6119757,6.06959401 9.93053695,6.06959401 C8.25713697,6.06959401 6.86509327,4.71401987 6.86509327,3.03480571 C6.86509327,1.35426516 8.25847676,-0.00396177657 9.93589611,8.68288227e-06 C11.622694,0.00532297786 12.994665,1.36222352 12.994665,3.03480571 L12.994665,3.03480571 Z M12.0098996,3.04143768 C12.0125734,1.91135042 11.0747192,0.977569406 9.93321653,0.976243013 C8.79707307,0.976243013 7.86591776,1.88747534 7.85118005,3.00695145 C7.83644234,4.16224018 8.78769453,5.08938923 9.92517778,5.09338113 C11.0640008,5.09734759 12.0072143,4.16754575 12.0098996,3.04143768 Z" id="形状"></path>
                </g>
            </g>
        </g>
    </g>
</svg>