<?xml version="1.0" encoding="UTF-8"?>
<svg width="16" height="16" viewBox="0 0 25 24" version="1.1" xmlns="http://www.w3.org/2000/svg" xmlns:xlink="http://www.w3.org/1999/xlink">
    <title>切片</title>
    <g id="页面-1" stroke="none" stroke-width="1" fill="none" fill-rule="evenodd">
        <g id="工作流-数据" transform="translate(-648.000000, -317.000000)" fill="#667085" fill-rule="nonzero">
            <g id="icon/line/预览备份-7" transform="translate(648.748656, 317.000000)">
                <g id="copy-template" transform="translate(3.000000, 2.000000)">
                    <path d="M10.3001274,5.70955414 L12.2904459,7.69987261 L12.2904459,18.6282803 L1.60509554,18.6282803 L1.60509554,5.70955414 L10.3001274,5.70955414 M10.9650955,4.1044586 L1.36203822,4.1044586 C0.609936306,4.1044586 0,4.71210191 0,5.46420382 L0,18.8713376 C0,19.2313376 0.144458599,19.5775796 0.398980892,19.8343949 C0.653503185,20.0912102 0.999745223,20.2333758 1.36203822,20.2333758 L12.5380892,20.2333758 C12.8980892,20.2333758 13.2443312,20.0889172 13.4988535,19.8343949 C13.7533758,19.5798726 13.8955414,19.2336306 13.8955414,18.8713376 L13.8955414,7.03490446 L10.9650955,4.1044586 Z" id="形状"></path>
                    <path d="M15.0695541,0 L5.46649682,0 C4.7143949,0 4.1044586,0.607643312 4.1044586,1.35974522 L4.1044586,2.85019108 C4.1044586,3.29342598 4.46377147,3.65273885 4.90700637,3.65273885 L4.90700637,3.65273885 L4.90700637,3.65273885 C5.35024126,3.65273885 5.70955414,3.29342598 5.70955414,2.85019108 L5.70955414,1.60509554 L5.70955414,1.60509554 L14.404586,1.60509554 L16.3949045,3.59541401 L16.3949045,14.5238217 L15.2300637,14.5238217 C14.7868288,14.5238217 14.4275159,14.8831345 14.4275159,15.3263694 C14.4275159,15.7696043 14.7868288,16.1289172 15.2300637,16.1289172 L16.6425478,16.1289172 L16.6425478,16.1289172 C17.0025478,16.1289172 17.3487898,15.9844586 17.6033121,15.7299363 C17.8578344,15.475414 18,15.129172 18,14.766879 L18,2.93044586 L15.0695541,0 Z" id="路径"></path>
                </g>
            </g>
        </g>
    </g>
</svg>