<?xml version="1.0" encoding="UTF-8"?>
<svg width="16" height="16" viewBox="0 0 25 24" version="1.1" xmlns="http://www.w3.org/2000/svg" xmlns:xlink="http://www.w3.org/1999/xlink">
    <title>切片</title>
    <g id="页面-1" stroke="none" stroke-width="1" fill="none" fill-rule="evenodd">
        <g id="工作流-数据" transform="translate(-605.000000, -317.000000)" fill="#1D2939" fill-rule="nonzero">
            <g id="icon/line/预览备份-6" transform="translate(605.748656, 317.000000)">
                <g id="erweima" transform="translate(3.000000, 3.000000)">
                    <path d="M1.77565632,6.63018867 L4.83293556,6.63018867 C5.81384248,6.63018867 6.60859188,5.83543926 6.60859188,4.85453235 L6.60859188,1.79725311 C6.60859188,0.816346195 5.81384248,0.0215967864 4.84009546,0.0215967864 L1.77565632,0.0215967864 C0.794749409,0.0215967864 0,0.816346195 0,1.79725311 L0,4.85453235 C0,5.83543926 0.801909308,6.63018867 1.77565632,6.63018867 Z M1.51073985,1.79725311 C1.51073985,1.65405502 1.63245823,1.53233664 1.77565632,1.53233664 L4.83293556,1.53233664 C4.97613365,1.53233664 5.09785203,1.65405502 5.09785203,1.79725311 L5.09785203,4.85453235 C5.09785203,4.99773044 4.97613365,5.11944882 4.83293556,5.11944882 L1.77565632,5.11944882 C1.63245823,5.11944882 1.51073985,4.99773044 1.51073985,4.85453235 L1.51073985,1.79725311 Z" id="形状"></path>
                    <path d="M4.84009546,11.405845 L1.77565632,11.405845 C0.794749409,11.405845 0,12.2005944 0,13.1815013 L0,16.2387805 C0,17.2196875 0.794749409,18.0144369 1.77565632,18.0144369 L4.83293556,18.0144369 C5.81384248,18.0144369 6.60859188,17.2196875 6.60859188,16.2387805 L6.60859188,13.1815013 C6.60859188,12.2005944 5.81384248,11.405845 4.84009546,11.405845 Z M5.09785203,16.2387805 C5.09785203,16.3819786 4.97613365,16.503697 4.83293556,16.503697 L1.77565632,16.503697 C1.63245823,16.503697 1.51073985,16.3819786 1.51073985,16.2387805 L1.51073985,13.1815013 C1.51073985,13.0383032 1.63245823,12.9165848 1.77565632,12.9165848 L4.83293556,12.9165848 C4.97613365,12.9165848 5.09785203,13.0383032 5.09785203,13.1815013 L5.09785203,16.2387805 Z" id="形状"></path>
                    <path d="M16.2243437,0.0215967864 L13.1670644,0.0215967864 C12.1861575,0.0215967864 11.3914081,0.816346195 11.3914081,1.79725311 L11.3914081,4.85453235 C11.3914081,5.83543926 12.1861575,6.63018867 13.1670644,6.63018867 L16.2243437,6.63018867 C17.2052506,6.63018867 18,5.83543926 18,4.85453235 L18,1.79725311 C17.9928401,0.816346195 17.1980907,0.0215967864 16.2243437,0.0215967864 Z M16.4821002,4.85453235 C16.4821002,4.99773044 16.3603819,5.11944882 16.2171838,5.11944882 L13.1599045,5.11944882 C13.0167064,5.11944882 12.8949881,4.99773044 12.8949881,4.85453235 L12.8949881,1.79725311 C12.8949881,1.65405502 13.0167064,1.53233664 13.1599045,1.53233664 L16.2171838,1.53233664 C16.3603819,1.53233664 16.4821002,1.65405502 16.4821002,1.79725311 L16.4821002,4.85453235 Z" id="形状"></path>
                    <path d="M12.1646778,9.89510513 C12.5584726,9.89510513 12.8806683,9.58006933 12.8736254,9.17911469 C12.8736254,8.78531994 12.5584726,8.46312424 12.1575179,8.46312424 L9.65871122,8.46312424 L9.65871122,5.65644166 C9.65871122,5.26264691 9.34367542,4.94045121 8.94272078,4.94761111 C8.54892604,4.94761111 8.22673034,5.26264691 8.22673034,5.66360155 L8.22673032,8.47028414 L0.715990464,8.47028414 C0.322195719,8.47028414 1.9822437e-08,8.78531994 1.9822437e-08,9.18627459 C1.9822437e-08,9.58006933 0.31503582,9.90226503 0.715990464,9.90226503 L8.24105013,9.90226503 L8.24105013,13.2531004 C8.24105013,13.6468951 8.55608593,13.9690908 8.95704058,13.9690908 C9.35799522,13.9690908 9.67303102,13.654055 9.67303102,13.2531004 L9.67303102,9.90226503 L12.1646778,9.90226505 L12.1646778,9.89510513 Z" id="路径"></path>
                    <path d="M17.2840095,9.89510513 C17.6778043,9.89510513 18,9.58006933 17.9928401,9.17911469 C17.9928401,8.78531994 17.6778043,8.46312424 17.2768496,8.46312424 L15.6945107,8.46312424 C15.300716,8.46312424 14.9785203,8.77816004 14.9785203,9.17911469 C14.9785203,9.57290943 15.2935561,9.89510513 15.6945107,9.89510513 L17.2840095,9.89510513 Z" id="路径"></path>
                    <path d="M8.94988066,2.255487 C9.3436754,2.255487 9.66587112,1.9404512 9.66587112,1.53949656 L9.66587112,0.708947616 C9.66587112,0.315152871 9.35083532,-0.00704282816 8.94988068,0.00011707053 C8.55608593,0.00011707053 8.23389024,0.315152871 8.23389024,0.716107515 L8.23389024,1.54665644 C8.24105011,1.9332913 8.55608591,2.255487 8.94988066,2.255487 Z" id="路径"></path>
                    <path d="M8.94988066,15.7805467 C8.55608591,15.7805467 8.23389022,16.0955825 8.23389022,16.4965371 L8.23389022,17.327086 C8.23389022,17.7208808 8.54892602,18.0430765 8.94988066,18.0430765 C9.3508353,18.0430765 9.6658711,17.7280407 9.6658711,17.327086 L9.6658711,16.4893772 C9.6658711,16.0955825 9.34367542,15.7805467 8.94988066,15.7805467 Z" id="路径"></path>
                    <path d="M16.5035799,16.2244607 C16.5035799,16.3676588 16.3818616,16.4822173 16.2458234,16.4822173 L15.4797136,16.4822173 L15.4797136,17.9714775 L16.2458234,17.9714775 C17.2124105,17.9714775 18,17.183888 18,16.2173008 L18,15.3509524 L16.5107398,15.3509524 L16.5107398,16.2244607 L16.5035799,16.2244607 Z" id="路径"></path>
                    <path d="M16.2386635,11.4559643 L13.2171838,11.4559643 C12.2505967,11.4559643 11.4630072,12.2435538 11.4630072,13.2101409 L11.4630072,16.2316206 C11.4630072,17.1982078 12.2505967,17.9857973 13.2171838,17.9857973 L13.9832936,17.9857973 L13.9832935,16.4893772 L13.2171837,16.4893772 C13.0739857,16.4893772 12.9594272,16.3676588 12.9594272,16.2316206 L12.9594272,13.2101409 C12.9594272,13.0669428 13.0811456,12.9523844 13.2171837,12.9523844 L16.2386635,12.9523844 C16.3818615,12.9523844 16.49642,13.0741027 16.49642,13.2101409 L16.49642,13.8760121 L17.9928401,13.8760121 L17.9928401,13.2101409 C17.9928401,12.2435538 17.2052506,11.4559643 16.2386635,11.4559643 Z" id="路径"></path>
                </g>
            </g>
        </g>
    </g>
</svg>