<?xml version="1.0" encoding="UTF-8"?>
<svg width="24px" height="25px" viewBox="0 0 24 25" version="1.1" xmlns="http://www.w3.org/2000/svg" xmlns:xlink="http://www.w3.org/1999/xlink">
    <title>切片</title>
    <g id="页面-1" stroke="none" stroke-width="1" fill="none" fill-rule="evenodd">
        <g id="首页-知识库-创建知识库" transform="translate(-279.000000, -491.000000)" fill="#FFA522" fill-rule="nonzero">
            <g id="icon/line/创建文件" transform="translate(279.000000, 491.500000)">
                <g id="xiangmuchuangjian" transform="translate(3.000000, 3.000000)">
                    <path d="M17.8671939,11.2922788 L17.8671939,5.49304453 C17.8671939,4.6275481 17.1629574,3.92331163 16.297461,3.92331163 L9.56128598,3.92331163 L8.79989408,1.07982927 C8.63046907,0.444995804 8.05074977,0 7.39346239,0 L1.50849495,0 C0.677700031,0 0,0.675658766 0,1.50849495 L0,15.6789577 C0,16.5444541 0.704236478,17.2486906 1.5697329,17.2486906 L9.6776381,17.2486906 C10.5206806,17.7508418 11.486199,18.0202888 12.4925427,18.0202888 C13.9642949,18.0202888 15.3482727,17.4466933 16.3872767,16.4076893 C17.4283219,15.3666441 17.99994,13.9847076 17.99994,12.5129554 C18.0019174,12.0965373 17.9549683,11.6882843 17.8671939,11.2922788 Z M1.42888561,1.50849495 C1.42888561,1.46562838 1.46358712,1.42888561 1.50849495,1.42888561 L7.39142112,1.42888561 C7.40366871,1.42888561 7.41387504,1.43705067 7.41795757,1.44929826 L8.07932748,3.92331163 L1.42888561,3.92331163 L1.42888561,1.50849495 Z M1.42888561,15.6789577 L1.42888561,5.35219723 L16.2954197,5.35219723 C16.3729878,5.35219723 16.436267,5.41547645 16.436267,5.49304453 L16.436267,8.66721185 C16.4199369,8.65088172 16.4036068,8.63251034 16.3872767,8.61618022 C15.3462314,7.57513499 13.9642949,7.00358074 12.4925427,7.00358074 C11.0207906,7.00358074 9.63681279,7.57717625 8.59780883,8.61618022 C7.5567636,9.65722545 6.98520936,11.039162 6.98520936,12.5109141 C6.98520936,13.7213844 7.37304974,14.8706166 8.08953381,15.819853 L1.5697329,15.819853 C1.49216483,15.8218462 1.42888561,15.758567 1.42888561,15.6789577 Z M12.4925427,16.5934444 C10.2430685,16.5934444 8.4120537,14.7624296 8.4120537,12.5129554 C8.4120537,10.2634812 10.2430685,8.43246635 12.4925427,8.43246635 C14.7420169,8.43246635 16.5730318,10.2634812 16.5730318,12.5129554 C16.5730318,14.7624296 14.7420169,16.5934444 12.4925427,16.5934444 Z" id="形状"></path>
                    <path d="M14.3460115,11.7985126 L13.2069855,11.7985126 L13.2069855,10.6594866 C13.2069855,10.2655225 12.8865069,9.94504383 12.4925427,9.94504383 C12.0985786,9.94504383 11.7780999,10.2655225 11.7780999,10.6594866 L11.7780999,11.7985126 L10.639074,11.7985126 C10.2451098,11.7985126 9.92463118,12.1189912 9.92463118,12.5129554 C9.92463118,12.9069196 10.2451098,13.2273982 10.639074,13.2273982 L11.7780999,13.2273982 L11.7780999,14.3664242 C11.7780999,14.7603883 12.0985786,15.080867 12.4925427,15.080867 C12.8865069,15.080867 13.2069855,14.7603883 13.2069855,14.3664242 L13.2069855,13.2273982 L14.3460115,13.2273982 C14.7399757,13.2273982 15.0604543,12.9069196 15.0604543,12.5129554 C15.0604543,12.1189912 14.7420169,11.7985126 14.3460115,11.7985126 Z" id="路径"></path>
                </g>
            </g>
        </g>
    </g>
</svg>