<?xml version="1.0" encoding="UTF-8"?>
<svg width="18px" height="18px" viewBox="0 0 18 18" version="1.1" xmlns="http://www.w3.org/2000/svg" xmlns:xlink="http://www.w3.org/1999/xlink">
    <title>切片</title>
    <g id="页面-1" stroke="none" stroke-width="1" fill="none" fill-rule="evenodd">
        <g id="工作流-数据" transform="translate(-1218.000000, -28.000000)" fill="currentColor" fill-rule="nonzero">
            <g id="icon/line/历史记录（未选中）备份-7" transform="translate(1218.000000, 28.000000)">
                <g id="yulan-4" transform="translate(2.000000, 2.000000)">
                    <path d="M7,9.0453125 C8.275,9.0453125 9.4625,8.384375 10.5859375,7 C9.4609375,5.615625 8.275,4.9546875 7,4.9546875 C5.725,4.9546875 4.5375,5.615625 3.4140625,7 C4.5375,8.384375 5.725,9.0453125 7,9.0453125 Z M7,10.01875 C5.3546875,10.01875 3.853125,9.18125 2.4921875,7.5078125 C2.2515625,7.2125 2.2515625,6.7890625 2.4921875,6.49375 C3.853125,4.81875 5.3546875,3.98125 7,3.98125 C8.6453125,3.98125 10.146875,4.81875 11.5078125,6.4921875 C11.7484375,6.7875 11.7484375,7.2109375 11.5078125,7.50625 C10.146875,9.18125 8.6453125,10.01875 7,10.01875 L7,10.01875 Z" id="形状"></path>
                    <path d="M7,7.4375 C7.2421875,7.4375 7.4375,7.2421875 7.4375,7 C7.4375,6.759375 7.2421875,6.5625 7,6.5625 C6.7578125,6.5625 6.5625,6.7578125 6.5625,7 C6.5625,7.240625 6.7578125,7.4375 7,7.4375 Z M7,8.5609375 C6.4421875,8.5609375 5.9265625,8.2640625 5.646875,7.78125 C5.3671875,7.2984375 5.3671875,6.703125 5.646875,6.2203125 C5.9265625,5.7375 6.4421875,5.440625 7,5.440625 C7.8625,5.440625 8.5625,6.1390625 8.5625,7.0015625 C8.5625,7.8625 7.8625,8.5609375 7,8.5609375 Z" id="形状"></path>
                    <path d="M1.125,12.875 L1.125,10.640625 C1.125,10.3296875 0.8734375,10.078125 0.5625,10.078125 C0.2515625,10.078125 0,10.3296875 0,10.640625 L0,13.0625 C0,13.5796875 0.4203125,14 0.9375,14 L3.359375,14 C3.6703125,14 3.921875,13.7484375 3.921875,13.4375 C3.921875,13.1265625 3.6703125,12.875 3.359375,12.875 L1.125,12.875 Z M1.125,1.125 L3.359375,1.125 C3.6703125,1.125 3.921875,0.8734375 3.921875,0.5625 C3.921875,0.2515625 3.6703125,0 3.359375,0 L0.9375,0 C0.4203125,0 0,0.4203125 0,0.9375 L0,3.359375 C0,3.6703125 0.2515625,3.921875 0.5625,3.921875 C0.8734375,3.921875 1.125,3.6703125 1.125,3.359375 L1.125,1.125 Z M12.875,1.125 L12.875,3.359375 C12.875,3.6703125 13.1265625,3.921875 13.4375,3.921875 C13.7484375,3.921875 14,3.6703125 14,3.359375 L14,0.9375 C14,0.4203125 13.5796875,0 13.0625,0 L10.640625,0 C10.3296875,0 10.078125,0.2515625 10.078125,0.5625 C10.078125,0.8734375 10.3296875,1.125 10.640625,1.125 L12.875,1.125 Z M12.875,12.875 L10.640625,12.875 C10.3296875,12.875 10.078125,13.1265625 10.078125,13.4375 C10.078125,13.7484375 10.3296875,14 10.640625,14 L13.0625,14 C13.5796875,14 14,13.5796875 14,13.0625 L14,10.640625 C14,10.3296875 13.7484375,10.078125 13.4375,10.078125 C13.1265625,10.078125 12.875,10.3296875 12.875,10.640625 L12.875,12.875 Z" id="形状"></path>
                </g>
            </g>
        </g>
    </g>
</svg>