<?xml version="1.0" encoding="UTF-8"?>
<svg width="16px" height="16px" viewBox="0 0 18 18" version="1.1" xmlns="http://www.w3.org/2000/svg" xmlns:xlink="http://www.w3.org/1999/xlink">
    <title>切片</title>
    <g id="页面-1" stroke="none" stroke-width="1" fill="none" fill-rule="evenodd">
        <g id="首页-创建场景" transform="translate(-435.000000, -247.000000)" fill="currentColor" fill-rule="nonzero">
            <g id="编组-7" transform="translate(262.000000, 105.000000)">
                <g id="编组-5" transform="translate(122.000000, 142.000000)">
                    <g id="icon/line/创建2" transform="translate(51.000000, 0.000000)">
                        <path d="M9,1 C9.5860981,1 10.069151,1.44118879 10.1351683,2.00957586 L10.1428571,2.14285714 L10.142,7.857 L15.8571429,7.85714286 C16.4883254,7.85714286 17,8.36881743 17,9 C17,9.5860981 16.5588112,10.069151 15.9904241,10.1351683 L15.8571429,10.1428571 L10.142,10.142 L10.1428571,15.8571429 C10.1428571,16.4883254 9.63118257,17 9,17 C8.4139019,17 7.93084896,16.5588112 7.86483169,15.9904241 L7.85714286,15.8571429 L7.857,10.142 L2.14285714,10.1428571 C1.51167457,10.1428571 1,9.63118257 1,9 C1,8.4139019 1.44118879,7.93084896 2.00957586,7.86483169 L2.14285714,7.85714286 L7.857,7.857 L7.85714286,2.14285714 C7.85714286,1.51167457 8.36881743,1 9,1 Z" id="形状结合"></path>
                    </g>
                </g>
            </g>
        </g>
    </g>
</svg>