<?xml version="1.0" encoding="UTF-8"?>
<svg width="24px" height="24px" viewBox="0 0 24 24" version="1.1" xmlns="http://www.w3.org/2000/svg" xmlns:xlink="http://www.w3.org/1999/xlink">
    <title>切片</title>
    <g id="页面-1" stroke="none" stroke-width="1" fill="none" fill-rule="evenodd">
        <g id="工作流-场景设计" transform="translate(-389.000000, -797.000000)" fill="currentColor" fill-rule="nonzero">
            <g id="编组-4" transform="translate(372.000000, 785.000000)">
                <g id="icon/line/缩小备份-3" transform="translate(17.000000, 12.000000)">
                    <g id="tianjia-2" transform="translate(3.000000, 3.000000)">
                        <path d="M9,18 C7.78532958,18 6.60660845,17.7619183 5.4965662,17.2924225 C4.42475493,16.8390761 3.46233803,16.1902394 2.63603662,15.3639634 C1.80973521,14.537662 1.16092394,13.5752451 0.707577465,12.5034592 C0.238056338,11.3933662 0,10.2146451 0,9 C0,7.78532958 0.238056338,6.60660845 0.707577465,5.4965662 C1.16092394,4.42475493 1.80973521,3.46233803 2.63603662,2.63603662 C3.46233803,1.80973521 4.42475493,1.16089859 5.4965662,0.707577465 C6.60660845,0.238056338 7.78532958,0 9,0 C10.2146704,0 11.3933915,0.238056338 12.5034338,0.707577465 C13.5752197,1.16092394 14.537662,1.80973521 15.3639634,2.63603662 C16.1902648,3.46233803 16.8391014,4.42475493 17.2923972,5.4965662 C17.7619183,6.60660845 18,7.78532958 18,9 C18,10.6127746 17.5682028,12.1951775 16.7512817,13.576107 C16.5374113,13.9376282 16.0709831,14.0573408 15.7094366,13.8434704 C15.3479155,13.6296 15.2282282,13.1631465 15.4420732,12.8016254 C16.1203437,11.6550761 16.4788732,10.3404676 16.4788732,9 C16.4788732,4.87612394 13.1238507,1.52112676 9,1.52112676 C4.87612394,1.52112676 1.52112676,4.87612394 1.52112676,9 C1.52112676,13.1238507 4.87612394,16.4788732 9,16.4788732 C10.1547887,16.4788732 11.261662,16.2230197 12.2899437,15.718462 C12.667107,15.5334676 13.1227606,15.6891549 13.3077803,16.0662169 C13.4928254,16.4433042 13.3371127,16.8990338 12.9600254,17.0840535 C11.7214225,17.6918451 10.3890676,18 9,18 Z" id="路径"></path>
                        <path d="M13.6097561,9.9 L4.3902439,9.9 C3.95381854,9.9 3.6,9.49704 3.6,9 C3.6,8.50296 3.95381854,8.1 4.3902439,8.1 L13.6097561,8.1 C14.0461815,8.1 14.4,8.50296 14.4,9 C14.4,9.49704 14.0461815,9.9 13.6097561,9.9 Z" id="路径"></path>
                        <path d="M9,14.4 C8.50296,14.4 8.1,14.0461815 8.1,13.6097561 L8.1,4.3902439 C8.1,3.95381854 8.50296,3.6 9,3.6 C9.49704,3.6 9.9,3.95381854 9.9,4.3902439 L9.9,13.6097561 C9.9,14.0461815 9.49704,14.4 9,14.4 Z" id="路径"></path>
                    </g>
                </g>
            </g>
        </g>
    </g>
</svg>