<svg width="20" height="20" viewBox="0 0 35 35" version="1.1" xmlns="http://www.w3.org/2000/svg">
    <title>切片</title>
    <g id="页面-1" stroke="none" stroke-width="1" fill="#667084" fill-rule="evenodd" style="transform:scale(1.3);transform-origin:center center;">
        <g id="工作流-数据" transform="translate(-858.000000, -219.000000)" fill="currentColor" fill-rule="nonzero">
            <g id="编组-2备份" transform="translate(851.000000, 208.000000)">
                <g id="icon/line/聊天助手" transform="translate(7.000000, 11.000000)">
                    <g id="_houduankaifa" transform="translate(6.000000, 6.000000)">
                        <path d="M20.25,8.05500002 L17.0475,6.72750001 C16.7951812,6.62969855 16.5098525,6.67393677 16.2989946,6.84355055 C16.0881366,7.01316433 15.9837837,7.28238531 16.0252446,7.54980055 C16.0667054,7.81721579 16.2476812,8.04219855 16.5,8.14 L18.085,8.78250002 L16.5,9.51000001 C16.1226233,9.67658547 15.9506145,10.1166598 16.115,10.495 C16.2429538,10.7566247 16.5087619,10.9225122 16.8,10.9225 C16.9073142,10.9350589 17.0152231,10.9044847 17.1,10.8375 L20.25,9.38000002 C20.5131025,9.25607976 20.6828026,8.99328707 20.6875,8.70250002 C20.6933741,8.41583392 20.5181558,8.15651078 20.25,8.05500002 L20.25,8.05500002 Z M12.9825,5.05750002 C12.5926721,4.930133 12.1728272,5.13949862 12.04,5.52750001 L10.4125,10.495 C10.285133,10.8848279 10.4944986,11.3046728 10.8825,11.4375 C10.9497267,11.4686873 11.0234634,11.4832632 11.0975,11.48 C11.4220069,11.4607699 11.7058556,11.2549552 11.825,10.9525 L13.4525,5.98750002 C13.5719154,5.60150766 13.364097,5.19029257 12.9825,5.05750002 Z M7.97249999,7.155 C7.80508612,6.78504491 7.38577314,6.60071967 6.99999999,6.72750001 L3.7775,8.05500002 C3.50564356,8.17816966 3.32459861,8.44203303 3.30745858,8.74000001 C3.30443909,9.03210274 3.4712591,9.29940498 3.73499999,9.42500001 L6.90250001,10.88 C6.99588442,10.9279204 7.09785783,10.9568129 7.20249999,10.965 C7.49373812,10.965 7.7595462,10.7991247 7.88750001,10.5375 C8.05157735,10.1584786 7.87834454,9.71813205 7.49999999,9.55250002 L5.91500001,8.82500002 L7.49999999,8.1825 C7.92999999,7.96750001 8.14499998,7.54000002 7.97249999,7.155 Z M13.8125,19.5 L2.24999999,19.5 C1.83578643,19.5 1.49999999,19.8357865 1.49999999,20.25 C1.49999999,20.6642136 1.83578643,21 2.24999999,21 L13.8125,21 C14.2267136,21 14.5625,20.6642136 14.5625,20.25 C14.5625,19.8357865 14.2267136,19.5 13.8125,19.5 L13.8125,19.5 Z" id="形状"></path>
                        <path d="M22.5,1.5 L22.5,15 L1.5,15 L1.5,1.5 L22.5,1.5 M22.5,0 L1.5,0 C0.671572877,0 0,0.671572877 0,1.5 L0,15 C0,15.8284271 0.671572877,16.5 1.5,16.5 L22.5,16.5 C23.3284271,16.5 24,15.8284271 24,15 L24,1.5 C24,0.671572877 23.3284271,0 22.5,0 Z M21.75,19.5 L18.235,19.5 C17.8207864,19.5 17.485,19.8357865 17.485,20.25 C17.485,20.6642136 17.8207864,21 18.235,21 L21.75,21 C22.1642136,21 22.5,20.6642136 22.5,20.25 C22.5,19.8357865 22.1642136,19.5 21.75,19.5 L21.75,19.5 Z" id="形状"></path>
                        <path d="M16.0775,22.905 C14.611184,22.905 13.4225,21.716316 13.4225,20.25 C13.4225,18.783684 14.611184,17.595 16.0775,17.595 C17.543816,17.595 18.7325,18.783684 18.7325,20.25 C18.7297485,21.7151748 17.5426748,22.9022485 16.0775,22.905 L16.0775,22.905 Z M16.0775,19.0925 C15.4402641,19.0938808 14.9245428,19.6110943 14.9250027,20.2483315 C14.9254633,20.8855688 15.4419312,21.4020367 16.0791685,21.4024973 C16.7164057,21.4029572 17.2336192,20.8872359 17.235,20.25 C17.235,19.6107304 16.7167696,19.0925 16.0775,19.0925 L16.0775,19.0925 Z" id="形状"></path>
                    </g>
                </g>
            </g>
        </g>
    </g>
</svg>