<?xml version="1.0" encoding="UTF-8"?>
<svg width="20px" height="20px" viewBox="0 0 20 20" version="1.1" xmlns="http://www.w3.org/2000/svg" xmlns:xlink="http://www.w3.org/1999/xlink">
    <title>切片</title>
    <g id="页面-1" stroke="none" stroke-width="1" fill="none" fill-rule="evenodd">
        <g id="工作流-数据" transform="translate(-615.000000, -28.000000)" fill="#667084" fill-rule="nonzero">
            <g id="icon/line/历史记录（未选中）" transform="translate(615.000000, 28.000000)">
                <g id="changjingsheji备份" transform="translate(1.000000, 2.000000)">
                    <path d="M16.0757238,0 L1.92427617,0 C0.863919822,0 0,0.830843373 0,1.85060241 L0,9.82746988 C0,10.8472289 0.863919822,11.6780723 1.92427617,11.6780723 L8.35857461,11.6780723 L8.35857461,14.7546988 L4.18930958,14.7546988 C4.01291759,14.7546988 3.86859688,14.893494 3.86859688,15.0631325 L3.86859688,15.68 C3.86859688,15.8496386 4.01291759,15.9884337 4.18930958,15.9884337 L8.35857461,15.9884337 L8.35857461,16 L9.64142539,16 L9.64142539,15.9884337 L13.8106904,15.9884337 C13.9870824,15.9884337 14.1314031,15.8496386 14.1314031,15.68 L14.1314031,15.0631325 C14.1314031,14.893494 13.9870824,14.7546988 13.8106904,14.7546988 L9.64142539,14.7546988 L9.64142539,11.6780723 L16.0757238,11.6780723 C17.1360802,11.6780723 18,10.8472289 18,9.82746988 L18,1.85060241 C18,0.828915663 17.1360802,0 16.0757238,0 L16.0757238,0 Z M16.7171492,9.82746988 C16.7171492,10.166747 16.4285078,10.4443373 16.0757238,10.4443373 L1.92427617,10.4443373 C1.5714922,10.4443373 1.28285078,10.166747 1.28285078,9.82746988 L1.28285078,1.85060241 C1.28285078,1.5113253 1.5714922,1.23373494 1.92427617,1.23373494 L16.0757238,1.23373494 C16.4285078,1.23373494 16.7171492,1.5113253 16.7171492,1.85060241 L16.7171492,9.82746988 Z" id="形状"></path>
                    <path d="M14.7,3.63835851 L12.601875,3.63835851 L12.601875,3.31917925 C12.601875,3.14363066 12.466875,3 12.301875,3 L11.701875,3 C11.536875,3 11.401875,3.14363066 11.401875,3.31917925 L11.401875,3.63835851 L3.3,3.63835851 C3.135,3.63835851 3,3.78198917 3,3.95753776 L3,4.59589627 C3,4.77144486 3.135,4.91507552 3.3,4.91507552 L11.401875,4.91507552 L11.401875,5.23425477 C11.401875,5.40980336 11.536875,5.55343403 11.701875,5.55343403 L12.301875,5.55343403 C12.466875,5.55343403 12.601875,5.40980336 12.601875,5.23425477 L12.601875,4.91507552 L14.7,4.91507552 C14.865,4.91507552 15,4.77144486 15,4.59589627 L15,3.95753776 C15,3.78198917 14.865,3.63835851 14.7,3.63835851 Z M14.7,8.11285266 L6.62625,8.11285266 L6.62625,7.76574523 C6.62625,7.59019664 6.49125,7.44656597 6.32625,7.44656597 L5.72625,7.44656597 C5.56125,7.44656597 5.42625,7.59019664 5.42625,7.76574523 L5.42625,8.11285266 L3.3,8.11285266 C3.135,8.11285266 3,8.25648333 3,8.43203192 L3,9.07039042 C3,9.24593901 3.135,9.38956968 3.3,9.38956968 L5.42625,9.38956968 L5.42625,9.68082075 C5.42625,9.85636934 5.56125,10 5.72625,10 L6.32625,10 C6.49125,10 6.62625,9.85636934 6.62625,9.68082075 L6.62625,9.38956968 L14.7,9.38956968 C14.865,9.38956968 15,9.24593901 15,9.07039042 L15,8.43203192 C15,8.25448846 14.865,8.11285266 14.7,8.11285266 L14.7,8.11285266 Z" id="形状"></path>
                </g>
            </g>
        </g>
    </g>
</svg>