<?xml version="1.0" encoding="UTF-8"?>
<svg width="25px" height="24px" viewBox="0 0 25 24" version="1.1" xmlns="http://www.w3.org/2000/svg" xmlns:xlink="http://www.w3.org/1999/xlink">
    <title>切片</title>
    <g id="页面-1" stroke="none" stroke-width="1" fill="none" fill-rule="evenodd">
        <g id="工作流-数据" transform="translate(-468.000000, -383.000000)" fill="currentColor" fill-rule="nonzero">
            <g id="编组-6" transform="translate(80.000000, 373.000000)">
                <g id="icon/line/预览备份-3" transform="translate(388.748656, 10.000000)">
                    <g id="shezhi-3" transform="translate(2.000000, 1.000000)">
                        <path d="M8.9648033,0.277380122 C9.60538525,-0.0924600408 10.3946148,-0.0924600408 11.0351967,0.277380122 L18.9648033,4.85605508 C19.605369,5.22588584 20,5.90935422 20,6.64901575 L20,15.8053304 C20,16.544992 19.605369,17.2284603 18.9648033,17.5982911 L11.0351967,22.1769661 C10.3946148,22.5468062 9.60538525,22.5468062 8.9648033,22.1769661 L1.0351967,17.5982911 C0.394631022,17.2284603 0,16.544992 0,15.8053304 L0,6.64901575 C0,5.90935422 0.394631022,5.22588584 1.0351967,4.85605508 L8.9648033,0.277380122 Z M10,2.07034079 L2.07039337,6.64901575 L2.07039337,15.8053304 L10,20.3840054 L17.9296066,15.8053304 L17.9296066,6.64901575 L10,2.07034079 Z M10,7.08638633 C12.2868934,7.08638633 14.1407868,8.94027971 14.1407868,11.2271731 C14.1407868,13.5140665 12.2868934,15.3679598 10,15.3679598 C7.71310662,15.3679598 5.85921324,13.5140665 5.85921324,11.2271731 C5.85921324,8.94027971 7.71310662,7.08638633 10,7.08638633 Z M10,9.15677972 C9.26031968,9.15677972 8.57682686,9.55139444 8.2069867,10.1919764 C7.83714653,10.8325583 7.83714653,11.6217878 8.2069867,12.2623698 C8.57682686,12.9029517 9.26031968,13.2975665 10,13.2975665 C11.1434467,13.2975665 12.0703933,12.3706197 12.0703933,11.2271731 C12.0703933,10.0837264 11.1434467,9.15677972 10,9.15677972 L10,9.15677972 Z" id="形状"></path>
                    </g>
                </g>
            </g>
        </g>
    </g>
</svg>