<?xml version="1.0" encoding="UTF-8"?>
<svg width="25px" height="24px" viewBox="0 0 25 24" version="1.1" xmlns="http://www.w3.org/2000/svg" xmlns:xlink="http://www.w3.org/1999/xlink">
    <title>切片</title>
    <g id="页面-1" stroke="none" stroke-width="1" fill="none" fill-rule="evenodd">
        <g id="工作流-数据" transform="translate(-211.000000, -383.000000)" fill="currentColor" fill-rule="nonzero">
            <g id="编组-6" transform="translate(80.000000, 373.000000)">
                <g id="icon/line/预览备份" transform="translate(131.748656, 10.000000)">
                    <g id="shouye" transform="translate(2.000000, 2.000000)">
                        <path d="M19.7992667,18.8207752 L16.4088422,15.3801778 C16.1383662,15.1053817 15.6964341,15.1024331 15.4223465,15.3729091 C15.1478933,15.6432708 15.1446017,16.0849744 15.4150778,16.3594047 L18.8055023,19.8000021 C18.941986,19.9386345 19.1221967,20.0080307 19.3023845,20.0080307 C19.4792808,20.0080307 19.6561999,19.9412631 19.791998,19.8072709 C20.0664512,19.536932 20.0697427,19.0952284 19.7992667,18.8207752 Z" id="路径"></path>
                        <path d="M18.3058771,12.0142797 C18.9906731,11.6134458 19.1959816,11.1291811 19.2475258,10.7936519 C19.2980644,10.4652771 19.2508174,9.95532029 18.7388262,9.38997905 C17.7374501,8.28560587 16.0629584,6.51540868 15.5619846,5.98684558 C15.4372041,5.268083 15.0163925,2.86008544 14.7235388,1.38169053 C14.6147586,0.834269786 14.2952298,0.390189014 13.846829,0.16343994 C13.4024053,-0.0612747975 12.8778195,-0.0541203117 12.3692341,0.18398907 C11.0029109,0.82542384 8.78817574,1.91411658 8.13480922,2.23590828 C7.40208053,2.14710583 4.89586312,1.84574898 3.42098834,1.69655632 C2.94556956,1.648075 2.47831102,1.8163539 2.1392617,2.15688898 C1.78249762,2.51513882 1.60093835,3.02644428 1.65339692,3.5247894 C1.81111554,5.02396201 2.12234694,7.5322366 2.21306943,8.2584737 C1.89923224,8.9204576 0.816208207,11.2102576 0.191231044,12.59553 C-0.117851721,13.278063 0.00466592455,13.7861912 0.161927372,14.092211 C0.371418833,14.4998565 0.766903984,14.7883673 1.24924867,14.8843242 C2.69209972,15.1661605 5.2214949,15.6068355 5.9637553,15.735479 C6.49913001,16.247356 8.30352242,17.9688432 9.39470667,18.9685278 C9.83606735,19.3732018 10.2441471,19.4809762 10.5538014,19.4809762 C10.6288663,19.4809762 10.6981253,19.4746217 10.760687,19.4647472 C11.0815644,19.4135458 11.5407542,19.2161918 11.9053585,18.5678311 C12.6499961,17.2482977 13.8648409,14.978704 14.2155933,14.3218402 C14.8497593,13.9709735 16.998184,12.7790779 18.30558,12.014554 C18.3056486,12.014394 18.3057629,12.014394 18.3058771,12.0142797 Z M17.6009892,10.8102237 C16.0768331,11.7014482 13.3873421,13.1854204 13.3604385,13.200278 C13.2420124,13.2655598 13.1450497,13.3638939 13.0815736,13.4833486 C13.0663504,13.5118522 11.554926,16.3498502 10.6898051,17.8829894 C10.6239519,17.9999527 10.5685446,18.0583085 10.5401553,18.0809149 C10.5063258,18.0682059 10.4359238,18.0301478 10.3375897,17.9399967 C9.06290326,16.7721703 6.7977439,14.6023736 6.77502329,14.5805673 C6.6746548,14.4843818 6.54770276,14.4203572 6.41064757,14.3967222 C6.37873813,14.3912821 3.19725646,13.8430613 1.51913036,13.5153723 C1.45396286,13.5024348 1.41206457,13.4719883 1.40308145,13.4545021 C1.39286403,13.4346387 1.38356093,13.3450362 1.46280881,13.1701743 C2.19030306,11.5574671 3.54709463,8.70173157 3.56071785,8.67299935 C3.61795371,8.55274462 3.63941715,8.41854664 3.62282241,8.28636017 C3.61884517,8.25490789 3.2246172,5.12291329 3.04100072,3.37872824 C3.03247477,3.29753743 3.06744715,3.20215197 3.12797453,3.14141886 C3.17522155,3.09396612 3.2200685,3.08352012 3.25707521,3.08352012 C3.26537258,3.08352012 3.27318994,3.08397727 3.28068728,3.0847773 C4.99876875,3.25849635 8.14086648,3.6421869 8.17243306,3.64604986 C8.30688247,3.66227887 8.44414339,3.63912396 8.56599815,3.57905375 C8.59381607,3.56531623 11.3661893,2.1963872 12.9616617,1.44720091 C13.0710133,1.39588523 13.164113,1.38191911 13.217143,1.40847984 C13.2774418,1.43901782 13.3314776,1.53520333 13.3549982,1.65328656 C13.6969962,3.38000827 14.2178562,6.40196554 14.2230678,6.43227494 C14.2464513,6.56830153 14.309813,6.69433929 14.4048556,6.79438775 C14.4260905,6.81665121 16.534217,9.03582074 17.7049006,10.3269648 C17.8362642,10.4719745 17.867625,10.5639313 17.8689736,10.5793831 C17.8619107,10.6026523 17.7977489,10.6949749 17.6009892,10.8102237 Z" id="形状"></path>
                        <path d="M6.35249742,9.54678335 C6.08067282,9.27381584 5.63885496,9.27278726 5.36588748,9.54486329 C5.09291997,9.81668789 5.09200567,10.2583915 5.36396742,10.5314732 L5.87049561,11.0400586 C6.00675077,11.1768852 6.18570425,11.2453443 6.36477203,11.2453443 C6.54281121,11.2453443 6.72096466,11.1775481 6.85710555,11.0419787 C7.13007306,10.7701541 7.13098736,10.3283362 6.85902561,10.0553687 L6.35249742,9.54678335 Z" id="路径"></path>
                        <path d="M9.92333834,6.97116974 C10.0597078,7.10799636 10.2386613,7.17645538 10.4176148,7.17645538 C10.5956539,7.17645538 10.7738074,7.10865924 10.9099483,6.9730898 C11.1829158,6.7011509 11.1838301,6.25944734 10.9118683,5.98647986 L10.4052259,5.47789446 C10.1331727,5.20492695 9.69158339,5.20412695 9.41861591,5.4759744 C9.14564841,5.7479133 9.1447341,6.18961686 9.41669585,6.46258434 L9.92333834,6.97116974 Z" id="路径"></path>
                        <path d="M11.1722641,8.41731231 C10.7958423,8.4995317 10.5572986,8.87126763 10.6393809,9.24768941 C10.6406381,9.25324384 10.7445266,9.81872223 10.3871911,10.1774064 C10.0404159,10.5253245 9.5152586,10.4265332 9.47994334,10.4193787 C9.10749883,10.3363821 8.7358772,10.5683428 8.64842336,10.9410159 C8.56053524,11.3160662 8.79331877,11.6914594 9.16846049,11.7794618 C9.30256702,11.8109141 9.47788613,11.8332918 9.67658874,11.8332918 C10.1880085,11.8332918 10.8547697,11.6851049 11.3757211,11.1621191 C12.0942551,10.440865 12.1078784,9.43233447 12.0026183,8.95021838 C11.9203075,8.57368233 11.5484344,8.33557292 11.1722641,8.41731231 Z" id="路径"></path>
                    </g>
                </g>
            </g>
        </g>
    </g>
</svg>