<?xml version="1.0" encoding="UTF-8"?>
<svg width="25px" height="24px" viewBox="0 0 25 24" version="1.1" xmlns="http://www.w3.org/2000/svg" xmlns:xlink="http://www.w3.org/1999/xlink">
    <title>切片</title>
    <g id="页面-1" stroke="none" stroke-width="1" fill="none" fill-rule="evenodd">
        <g id="工作流-数据" transform="translate(-350.000000, -383.000000)" fill="currentColor" fill-rule="nonzero">
            <g id="编组-6" transform="translate(80.000000, 373.000000)">
                <g id="icon/line/预览备份-2" transform="translate(270.748656, 10.000000)">
                    <g id="qianru" transform="translate(2.000000, 2.000000)">
                        <path d="M2.92477069,0 L17.0723824,0.000952382322 C18.6148156,0.000629173775 19.8929287,1.19708966 19.9942857,2.73618906 L20.0000051,2.9295223 L20.0000051,17.0733245 C19.9997885,18.6157344 18.80292,19.8934217 17.2638109,19.9942754 L17.0723824,20 L10.462862,20 C10.0676836,20.0025145 9.7380798,19.6985138 9.70871104,19.3044201 C9.67934227,18.9103265 9.96024596,18.5608294 10.3514335,18.5047524 L10.462862,18.4971333 L17.0723824,18.4971333 C17.8095249,18.4971333 18.4161913,17.9361812 18.4885722,17.2180864 L18.4961912,17.0723722 L18.4961912,2.9295223 C18.4961912,2.19142745 17.9352391,1.58476108 17.2171443,1.51238018 L17.0704777,1.50380876 L2.92477069,1.50285637 C2.54699733,1.50285502 2.18475195,1.65318516 1.91798344,1.92066839 C1.65121493,2.18815161 1.50185454,2.55079791 1.50286666,2.92856992 L1.50858095,9.62189981 C1.50910694,10.0369021 1.17310748,10.3737544 0.758105147,10.3742804 C0.343102818,10.3748064 0.00625056348,10.0388069 0.00572457724,9.62380457 L5.14216346e-06,2.93047468 C-0.00286063599,1.3881258 1.19245906,0.108616901 2.73143745,0.00666665672 L2.92477069,0 Z M5.95334056,11.1561847 C6.5666218,11.1561847 7.15478464,11.3998097 7.58843997,11.8334651 C8.0220953,12.2671204 8.26572032,12.8552832 8.26572032,13.4685645 L8.26572032,16.9361817 C8.26572032,18.2132738 7.23043264,19.2485615 5.95334056,19.2485615 L2.4857233,19.2485615 C1.20863122,19.2485615 0.173343534,18.2132738 0.173343534,16.9361817 L0.173343534,13.4685645 C0.173343534,12.1914724 1.20863122,11.1561847 2.4857233,11.1561847 L5.95238817,11.1561847 L5.95334056,11.1561847 Z M5.95334056,12.6590407 L2.4857233,12.6590407 C2.08066537,12.6586526 1.73766836,12.9577069 1.68286656,13.3590407 L1.67524753,13.4695169 L1.67524753,16.9371341 C1.67524753,17.3415142 1.97369804,17.6838525 2.37429478,17.7390385 L2.48477092,17.746658 L5.95238817,17.746658 C6.35713022,17.747111 6.70000974,17.4485659 6.75524491,17.0476103 L6.76191208,16.9371341 L6.76191208,13.4695169 C6.76236508,13.0647748 6.46381993,12.7218953 6.06286431,12.6666601 L5.95238817,12.6599935 L5.95334056,12.6590407 L5.95334056,12.6590407 Z M14.9714311,3.46856964 L15.0342883,3.4704744 L15.0904787,3.47714106 L14.9714311,3.46761726 C15.3434605,3.4682239 15.6591903,3.74064208 15.7142879,4.10856931 L15.7228692,4.21999783 L15.7228692,9.71809023 C15.7248614,10.1130729 15.4207234,10.44218 15.0268094,10.4712844 C14.6328954,10.5003889 14.2836917,10.2195542 14.227622,9.82856636 L14.220003,9.71809023 L14.2180982,6.05142546 L9.46286256,10.8771372 C9.18778109,11.1524351 8.74802361,11.1721466 8.44941519,10.9225634 C8.15080677,10.6729802 8.09217368,10.2367036 8.31429172,9.91713774 L8.3933393,9.82285209 L13.176194,4.96856887 L9.5142911,4.97142601 C9.14211073,4.97122498 8.82615283,4.69861003 8.77143434,4.33047396 L8.76191054,4.21999783 C8.76191054,3.84761706 9.03429135,3.53142676 9.40286259,3.47714106 L9.51333872,3.46761726 L14.9704788,3.46761726 L14.9714311,3.46856964 Z" id="形状"></path>
                    </g>
                </g>
            </g>
        </g>
    </g>
</svg>