<?xml version="1.0" encoding="UTF-8"?>
<svg width="24px" height="24px" viewBox="0 0 24 24" version="1.1" xmlns="http://www.w3.org/2000/svg" xmlns:xlink="http://www.w3.org/1999/xlink">
    <title>切片</title>
    <g id="页面-1" stroke="none" stroke-width="1" fill="none" fill-rule="evenodd">
        <g id="工作流-场景设计" transform="translate(-168.000000, -798.000000)" fill="currentColor" fill-rule="nonzero">
            <g id="编组-2" transform="translate(69.000000, 785.000000)">
                <g id="icon/line/缩小备份" transform="translate(99.000000, 13.000000)">
                    <g id="fangda-copy" transform="translate(3.000000, 3.000000)">
                        <path d="M7.34381844,16.23257 L3.09610854,16.23257 L7.76429882,11.5697143 C7.98764082,11.3464744 8.07478403,11.0211768 7.99290243,10.7163581 C7.91102084,10.4115393 7.6725542,10.1735085 7.36733061,10.0919297 C7.06210701,10.0103508 6.73649718,10.0976176 6.51315518,10.3208575 L1.76945007,15.0557132 L1.76945007,10.8488573 C1.76945007,10.3607955 1.37334518,9.96514329 0.884725035,9.96514329 C0.39610489,9.96514329 0,10.3607955 0,10.8488573 L0,17.1171412 C0,17.6048553 0.395594794,17.999999 0.884725025,17.999999 L7.34038596,17.999999 C7.82900609,18.0007081 8.22568725,17.6056315 8.2263991,17.1175698 C8.22710904,16.629508 7.83158046,16.2332801 7.34296033,16.23257 L7.34381844,16.23257 Z M17.1178418,0.00171762416 L10.6621809,0.00171762416 C10.1735608,0.00171762416 9.77745587,0.397369873 9.77745587,0.885431655 C9.77745587,1.37349344 10.1735608,1.76914569 10.6621809,1.76914569 L14.9081746,1.76914569 L10.2391262,6.43028718 C10.0156309,6.65352707 9.92834603,6.9789063 10.010151,7.28385766 C10.0919559,7.58880903 10.3304226,7.82700316 10.6357228,7.90871463 C10.9410231,7.9904261 11.2667745,7.90324099 11.4902698,7.6800011 L16.2305424,2.9442882 L16.2305424,7.15028697 C16.2305424,7.63834875 16.6266473,8.034001 17.1152675,8.034001 C17.6038876,8.034001 17.9999963,7.63834875 17.9999963,7.15028697 L17.9999963,0.882860237 C18.0006779,0.648651438 17.9078945,0.423825449 17.7421742,0.258133698 C17.576454,0.092441946 17.351461,-0.000453757903 17.1169837,1.66668087e-06 L17.1178418,0.00171762416 Z" id="形状"></path>
                    </g>
                </g>
            </g>
        </g>
    </g>
</svg>