<?xml version="1.0" encoding="UTF-8"?>
<svg width="24px" height="24px" viewBox="0 0 24 24" version="1.1" xmlns="http://www.w3.org/2000/svg" xmlns:xlink="http://www.w3.org/1999/xlink">
    <title>切片</title>
    <g id="页面-1" stroke="none" stroke-width="1" fill="none" fill-rule="evenodd">
        <g id="工作流-场景设计" transform="translate(-584.000000, -797.000000)" fill="currentColor" fill-rule="nonzero">
            <g id="编组-4" transform="translate(372.000000, 785.000000)">
                <g id="icon/line/缩小备份-7" transform="translate(212.000000, 12.000000)">
                    <g id="zhengli" transform="translate(3.000000, 3.000000)">
                        <path d="M8.99959907,1.73263374 L2.64747917,4.90875711 L8.99959907,8.08488049 L15.351719,4.90875711 L8.99959907,1.73263374 Z M9.36531231,0.0864821945 L17.5468166,4.17731603 C17.8240583,4.31588327 17.9991981,4.59921949 17.9991981,4.90916619 C17.9991981,5.21911288 17.8240583,5.50244911 17.5468166,5.64101635 L9.36531231,9.73185018 C9.13513688,9.84715978 8.86406125,9.84715978 8.63388583,9.73185018 L0.452381573,5.64101635 C0.175139796,5.50244911 0,5.21911288 0,4.90916619 C0,4.59921949 0.175139796,4.31588327 0.452381573,4.17731603 L8.63388583,0.0864821945 C8.86406125,-0.0288273982 9.13513688,-0.0288273982 9.36531231,0.0864821945 Z M16.8153901,8.26814984 C17.2195717,8.06594204 17.7111442,8.22968072 17.9133479,8.6338704 C18.1155517,9.03806008 17.9518163,9.52964237 17.5476347,9.73185018 L9.36613046,13.822684 C9.13595503,13.9379936 8.86487941,13.9379936 8.63470398,13.822684 L0.453199729,9.73185018 C0.191740067,9.60104466 0.0199238955,9.34068553 0.00247270384,9.04884754 C-0.0149784879,8.75700954 0.124586551,8.47802983 0.368595022,8.31699736 C0.612603493,8.15596489 0.923984704,8.13734432 1.18544437,8.26814984 L8.99959907,12.1757143 L16.8153901,8.26814984 L16.8153901,8.26814984 Z M16.8153901,12.3589836 C17.0768497,12.2281781 17.388231,12.2467987 17.6322394,12.4078312 C17.8762479,12.5688637 18.0158129,12.8478434 17.9983617,13.1396814 C17.9809105,13.4315193 17.8090944,13.6918785 17.5476347,13.822684 L9.36613046,17.9135178 C9.13595503,18.0288274 8.86487941,18.0288274 8.63470398,17.9135178 L0.453199729,13.822684 C0.0490181113,13.6204762 -0.114717283,13.1288939 0.0874864896,12.7247042 C0.289690263,12.3205145 0.781262748,12.1567758 1.18544437,12.3589836 L8.99959907,16.2665481 L16.8153901,12.3589836 Z" id="形状"></path>
                    </g>
                </g>
            </g>
        </g>
    </g>
</svg>