<?xml version="1.0" encoding="UTF-8"?>
<svg width="24px" height="24px" viewBox="0 0 24 24" version="1.1" xmlns="http://www.w3.org/2000/svg" xmlns:xlink="http://www.w3.org/1999/xlink">
    <title>切片</title>
    <g id="页面-1" stroke="none" stroke-width="1" fill="none" fill-rule="evenodd">
        <g id="工作流-场景设计" transform="translate(-529.000000, -797.000000)" fill="currentColor" fill-rule="nonzero">
            <g id="编组-4" transform="translate(372.000000, 785.000000)">
                <g id="icon/line/缩小备份-6" transform="translate(157.000000, 12.000000)">
                    <g id="zhuashou" transform="translate(2.000000, 2.000000)">
                        <path d="M9.82535566,1.892625 C9.82535566,0.8491875 10.7467193,0 11.8544557,0 C12.962192,0 13.8835557,0.8491875 13.8835557,1.92675 L13.8874931,3.178875 C14.2510062,2.28303606 15.1874945,1.75942522 16.1410278,1.918875 C17.2369518,2.102625 17.9890051,3.1395 17.7816326,4.2039375 L17.4508867,6.4220625 C18.0054589,5.82342934 18.8566073,5.60027522 19.6335473,5.8498125 C20.6966592,6.1989375 21.2675897,7.3460625 20.8764695,8.3698125 L18.1360033,16.634625 L18.0887538,16.77375 L18.075629,16.80525 L18.0940038,16.755375 C17.1923274,19.31475 14.6776084,21 11.8518307,21 C10.0270267,20.9933285 8.24670091,20.4361693 6.74364362,19.401375 C6.21733761,19.112625 5.2277248,18.293625 3.89555371,17.07825 C2.80337913,16.0786352 1.73044568,15.0581982 0.677343362,14.0175 C-0.289957221,13.1158125 -0.196770869,11.67075 0.800716842,10.7506875 L1.2745235,11.263875 L0.800716842,10.749375 C1.76539246,9.862125 3.19337486,9.8109375 4.14755061,10.6903125 L6.12283877,12.516 C6.35646089,12.7299375 6.53627118,12.7378125 6.62683256,12.639375 C6.60583282,12.6616875 6.60320785,12.187875 6.52708379,11.626125 L5.53878347,4.108125 C5.39441025,3.037125 6.20552525,2.0435625 7.31063664,1.918875 C8.40787312,1.798125 9.4237356,2.5685625 9.56023392,3.6316875 L9.70460714,4.4113125 L9.82666814,1.8913125 L9.82535566,1.892625 Z M1.64726891,13.006875 C1.83364162,13.1893125 2.13288793,13.484625 2.52400811,13.8639375 C3.28524873,14.6015625 4.05698922,15.3286875 4.8379171,16.0426875 C6.08215177,17.178 7.0297651,17.9615625 7.4838845,18.2135625 C8.76904795,19.1068833 10.2945993,19.5900873 11.8597056,19.5995625 C14.098803,19.5995625 16.0754037,18.2739375 16.7578952,16.338 L16.7447704,16.3813125 L16.7697076,16.309125 L16.8090821,16.1896875 L19.5561108,7.896 C19.6084073,7.75308941 19.5992999,7.59491699 19.5309461,7.45895347 C19.4625924,7.32298996 19.3410737,7.22133212 19.1951777,7.1780625 C18.8670568,7.0704375 18.4864364,7.2489375 18.3722504,7.546875 L16.7998947,11.4331875 C16.7568913,11.5471067 16.6912601,11.6511355 16.6069596,11.739 C16.35886,12.0059293 15.9491647,12.042196 15.6580338,11.823 C15.3915996,11.626125 15.3417252,11.4148125 15.3417252,11.1313125 L16.4008996,3.9650625 C16.4253042,3.81134127 16.3869149,3.65426095 16.2943595,3.52912458 C16.2018042,3.40398822 16.0628471,3.32129326 15.9087182,3.299625 C15.5648474,3.2405625 15.2236016,3.47025 15.1671648,3.766875 L13.9859294,9.8030625 C13.9626476,10.0092093 13.851489,10.1952633 13.6809937,10.3134547 C13.5104985,10.431646 13.2972737,10.4704624 13.0960654,10.4199375 C12.682633,10.3280625 12.4844479,9.9605625 12.5080726,9.6088125 L12.4818229,1.92675 C12.4818229,1.645875 12.2114513,1.399125 11.8531432,1.399125 C11.4935226,1.399125 11.2257759,1.6485 11.2257759,1.924125 L10.854343,9.63375 C10.8267808,10.0603125 10.5852838,10.44225 10.0734151,10.44225 C9.67835747,10.44225 9.42636057,10.187625 9.30561206,9.8739375 L8.17687597,3.850875 C8.12288413,3.51005442 7.8095432,3.27258425 7.46682221,3.31275 C7.12951387,3.352125 6.88932933,3.646125 6.92607888,3.9256875 L7.91569168,11.4436875 C8.07056478,12.602625 8.07581471,13.1368125 7.65975734,13.5883125 C7.01007784,14.2970625 5.94696594,14.256375 5.17653793,13.5489375 L3.1986248,11.720625 C2.79700475,11.3505 2.1919497,11.3701875 1.74964265,11.781 C1.32177292,12.1734375 1.29027331,12.6774375 1.64464394,13.0081875 L1.64726891,13.0081875 L1.64726891,13.006875 Z" id="形状"></path>
                    </g>
                </g>
            </g>
        </g>
    </g>
</svg>