<?xml version="1.0" encoding="UTF-8"?>
<svg width="20px" height="20px" viewBox="0 0 20 20" version="1.1" xmlns="http://www.w3.org/2000/svg" xmlns:xlink="http://www.w3.org/1999/xlink">
    <title>切片</title>
    <g id="页面-1" stroke="none" stroke-width="1" fill="none" fill-rule="evenodd">
        <g id="工作流-历史记录" transform="translate(-754.000000, -28.000000)" fill="currentColor" fill-rule="nonzero">
            <g id="icon/line/历史记录（未选中）" transform="translate(754.000000, 28.000000)">
                <g id="lishijilu_huaban备份" transform="translate(1.000000, 1.000000)">
                    <path d="M15.3678864,2.62967947 C12.0283666,-0.711235691 6.70013871,-0.866261659 3.16697599,2.15029508 L3.16697599,0.908914673 C3.16697599,0.494495783 2.83103132,0.158410741 2.41678551,0.158410741 C2.00253971,0.158410741 1.66659503,0.494495783 1.66659503,0.908914673 L1.66659503,3.9109304 C1.66659503,4.32534929 2.00253971,4.66143433 2.41678551,4.66143433 L5.41754742,4.66143433 C5.83179323,4.66143433 6.1677379,4.32534929 6.1677379,3.9109304 C6.1677379,3.49651151 5.83179323,3.16042647 5.41754742,3.16042647 L4.28874519,3.16042647 C7.23207064,0.778983679 11.5716881,0.954413974 14.3070702,3.69093894 C17.2316408,6.61720067 17.2316408,11.3789136 14.3070702,14.3049408 C11.3817962,17.2307335 6.62277531,17.2307335 3.69750132,14.3049408 C2.28057905,12.8874265 1.50038096,11.0027235 1.50038096,8.99793987 C1.50038096,8.58352098 1.16443628,8.24743593 0.750190478,8.24743593 C0.335944673,8.24743593 0,8.58352098 0,8.99793987 C0,11.403774 0.93633149,13.6656053 2.6366851,15.3662003 C4.39166195,17.1219104 6.69685662,18 9.00228574,18 C11.3074804,18 13.6129095,17.1219104 15.3678864,15.3662003 C18.8773712,11.85478 18.8773712,6.14109974 15.3678864,2.62967947 Z" id="路径"></path>
                    <path d="M8.83339844,4 C8.37320624,4 8,4.33585063 8,4.74998047 L8,9.09471108 C8,9.39493763 8.13021851,9.67782089 8.36617444,9.89015911 L11.5776233,12.780162 C11.7403964,12.9266425 11.9536943,13 12.1667318,13 C12.3797693,13 12.5933276,12.9268769 12.7558403,12.780162 C13.0813866,12.4872009 13.0813866,12.0126038 12.7558403,11.7196427 L9.66679689,8.9393245 L9.66679689,4.74998047 C9.66679689,4.33585063 9.29359065,4 8.83339844,4 Z" id="路径"></path>
                </g>
            </g>
        </g>
    </g>
</svg>