<?xml version="1.0" encoding="UTF-8"?>
<svg width="18px" height="18px" viewBox="0 0 18 18" version="1.1" xmlns="http://www.w3.org/2000/svg" xmlns:xlink="http://www.w3.org/1999/xlink">
    <title>切片</title>
    <g id="页面-1" stroke="none" stroke-width="1" fill="none" fill-rule="evenodd">
        <g id="工作流-数据" transform="translate(-1544.000000, -27.000000)" fill="#667084" fill-rule="nonzero">
            <g id="icon/line/历史记录（未选中）备份-6" transform="translate(1544.000000, 27.000000)">
                <g id="qingdan" transform="translate(2.000000, 2.000000)">
                    <path d="M12.25,0 C13.2164983,0 14,0.783501688 14,1.75 L14,12.25 C14,13.2164983 13.2164983,14 12.25,14 L1.75,14 C0.783501688,14 0,13.2164983 0,12.25 L0,1.75 C0,0.783501688 0.783501688,0 1.75,0 L12.25,0 Z M12.25,1.16666666 L1.75,1.16666666 C1.42783389,1.16666666 1.16666666,1.42783389 1.16666666,1.75 L1.16666666,12.25 C1.16666666,12.5721661 1.42783389,12.8333333 1.75,12.8333333 L12.25,12.8333333 C12.5721661,12.8333333 12.8333333,12.5721661 12.8333333,12.25 L12.8333333,1.75 C12.8333333,1.42783389 12.5721661,1.16666666 12.25,1.16666666 Z M4.375,7.58333334 C5.50258136,7.58333334 6.41666666,8.49741864 6.41666666,9.625 C6.41666666,10.7525814 5.50258136,11.6666667 4.375,11.6666667 C3.24741864,11.6666667 2.33333334,10.7525814 2.33333334,9.625 C2.33333334,8.49741864 3.24741864,7.58333334 4.375,7.58333334 L4.375,7.58333334 Z M4.375,8.75 C3.89175084,8.75 3.5,9.14175084 3.5,9.625 C3.5,10.1082492 3.89175084,10.5 4.375,10.5 C4.85824916,10.5 5.25,10.1082492 5.25,9.625 C5.25,9.14175084 4.85824916,8.75 4.375,8.75 Z M11.6666667,8.75 C11.9887979,8.75004932 12.2499107,9.0112021 12.2499107,9.33333333 C12.2499107,9.65546456 11.9887979,9.91661735 11.6666667,9.91666666 L8.16666666,9.91666666 C7.84453543,9.91661735 7.58342263,9.65546456 7.58342263,9.33333333 C7.58342263,9.0112021 7.84453543,8.75004932 8.16666666,8.75 L11.6666667,8.75 Z M6.82908334,3.08758334 C7.03688713,3.29540665 7.05763463,3.62536693 6.8775,3.85758334 L6.82908334,3.91241666 L4.49575,6.24575 C4.26825,6.47325 3.899,6.47325 3.67091666,6.24575 L3.08758334,5.66241666 C2.87388935,5.44418611 2.86471506,5.09806532 3.06654825,4.86882079 C3.26838144,4.63957626 3.61287653,4.60483572 3.85641666,4.78916666 L3.91125,4.83816666 L4.08216666,5.0085 L6.00366666,3.08816666 C6.23145824,2.86044386 6.60070842,2.86044386 6.8285,3.08816666 L6.82908334,3.08758334 Z M11.6666667,4.08333334 C11.9887979,4.08338265 12.2499107,4.34453544 12.2499107,4.66666667 C12.2499107,4.9887979 11.9887979,5.24995068 11.6666667,5.25 L8.16666666,5.25 C7.84453543,5.24995068 7.58342263,4.9887979 7.58342263,4.66666667 C7.58342263,4.34453544 7.84453543,4.08338265 8.16666666,4.08333334 L11.6666667,4.08333334 Z" id="形状"></path>
                </g>
            </g>
        </g>
    </g>
</svg>