<?xml version="1.0" encoding="UTF-8"?>
<svg width="24px" height="24px" viewBox="0 0 24 24" version="1.1" xmlns="http://www.w3.org/2000/svg" xmlns:xlink="http://www.w3.org/1999/xlink">
    <title>切片</title>
    <g id="页面-1" stroke="none" stroke-width="1" fill="none" fill-rule="evenodd">
        <g id="工作流-场景设计" transform="translate(-429.000000, -797.000000)" fill="currentColor" fill-rule="nonzero">
            <g id="编组-4" transform="translate(372.000000, 785.000000)">
                <g id="icon/line/缩小备份-4" transform="translate(57.000000, 12.000000)">
                    <g id="tianjiazhushi" transform="translate(3.000000, 3.000000)">
                        <path d="M1.16129032,0.580645161 L8.12903226,0.580645161 C8.44971373,0.580645161 8.70967742,0.840608855 8.70967742,1.16129032 C8.70967742,1.48197179 8.44971373,1.74193548 8.12903226,1.74193548 L1.74193548,1.74193548 C1.42125402,1.74193548 1.16129032,2.00189918 1.16129032,2.32258065 L1.16129032,12.7741935 C1.16129032,13.094875 1.42125402,13.3548387 1.74193548,13.3548387 L3.888,13.3548387 L4.46864516,14.516129 L1.16129032,14.516129 C0.85329698,14.516129 0.557918242,14.3937792 0.340134061,14.175995 C0.122349879,13.9582108 0,13.6628321 0,13.3548387 L0,1.74193548 C0,1.10057255 0.519927387,0.580645161 1.16129032,0.580645161 Z M7.37187097,14.516129 L16.2580645,14.516129 C16.8994275,14.516129 17.4193548,13.9962016 17.4193548,13.3548387 L17.4193548,9.87096774 C17.4193548,9.55028627 17.1593911,9.29032258 16.8387097,9.29032258 C16.5180282,9.29032258 16.2580645,9.55028627 16.2580645,9.87096774 L16.2580645,12.7741935 C16.2580645,12.9281902 16.1968896,13.0758796 16.0879975,13.1847717 C15.9791054,13.2936638 15.831416,13.3548387 15.6774194,13.3548387 L7.95251613,13.3548387 L7.37187097,14.516129 Z M5.40058065,16.3805806 C5.49880461,16.57766 5.70005762,16.7022197 5.92025806,16.7022197 C6.14045851,16.7022197 6.34171152,16.57766 6.43993548,16.3805806 L7.37129032,14.516129 L8.93670968,14.516129 L7.42819355,17.1290323 C6.75812903,18.2903226 5.08180645,18.2903226 4.41116129,17.1290323 L2.90322581,14.516129 L4.46864516,14.516129 L5.40058065,16.3805806 L5.40058065,16.3805806 Z" id="形状"></path>
                        <path d="M13.3548387,9.29032258 C15.9202905,9.29032258 18,7.21061303 18,4.64516129 C18,2.07970955 15.9202905,0 13.3548387,0 C10.789387,0 8.70967742,2.07970955 8.70967742,4.64516129 C8.70967742,7.21061303 10.789387,9.29032258 13.3548387,9.29032258 L13.3548387,9.29032258 Z M13.3548387,1.74193548 C13.6755202,1.74193548 13.9354839,2.00189918 13.9354839,2.32258065 L13.9354839,4.06451613 L15.6774194,4.06451613 C15.8848639,4.06451612 16.0765506,4.17518646 16.1802728,4.3548387 C16.2839951,4.53449094 16.2839951,4.75583164 16.1802728,4.93548388 C16.0765506,5.11513612 15.8848639,5.22580646 15.6774194,5.22580645 L13.9354839,5.22580645 L13.9354839,6.96774194 C13.9354839,7.2884234 13.6755202,7.5483871 13.3548387,7.5483871 C13.0341572,7.5483871 12.7741935,7.2884234 12.7741935,6.96774194 L12.7741935,5.22580645 L11.0322581,5.22580645 C10.7115766,5.22580645 10.4516129,4.96584276 10.4516129,4.64516129 C10.4516129,4.32447982 10.7115766,4.06451613 11.0322581,4.06451613 L12.7741935,4.06451613 L12.7741935,2.32258065 C12.7741935,2.16858397 12.8353685,2.0208946 12.9442606,1.91200251 C13.0531527,1.80311042 13.200842,1.74193548 13.3548387,1.74193548 L13.3548387,1.74193548 Z" id="形状"></path>
                    </g>
                </g>
            </g>
        </g>
    </g>
</svg>