<?xml version="1.0" encoding="UTF-8"?>
<svg width="24px" height="24px" viewBox="0 0 24 24" version="1.1" xmlns="http://www.w3.org/2000/svg" xmlns:xlink="http://www.w3.org/1999/xlink">
    <title>切片</title>
    <g id="页面-1" stroke="none" stroke-width="1" fill="none" fill-rule="evenodd">
        <g id="工作流-场景设计" transform="translate(-86.000000, -798.000000)" fill="currentColor" fill-rule="nonzero">
            <g id="编组-2" transform="translate(69.000000, 785.000000)">
                <g id="icon/line/缩小" transform="translate(17.000000, 13.000000)">
                    <g id="fangda-copy备份" transform="translate(3.000000, 3.000000)">
                        <path d="M17.3438184,6.26742674 L13.0961085,6.26742674 L17.7642988,1.60457097 C17.9876408,1.38133108 18.074784,1.05603353 17.9929024,0.751214771 C17.9110208,0.446396007 17.6725542,0.208365248 17.3673306,0.126786375 C17.062107,0.0452075022 16.7364972,0.132474288 16.5131552,0.355714179 L11.7694501,5.09056995 L11.7694501,0.883714031 C11.7694501,0.395652249 11.3733452,0 10.884725,0 C10.3961049,0 10,0.395652249 10,0.883714031 L10,7.15199791 C10,7.63971205 10.3955948,8.03485576 10.884725,8.03485576 L17.340386,8.03485576 C17.8290061,8.03556486 18.2256873,7.64048825 18.2263991,7.15242648 C18.227109,6.66436472 17.8315805,6.26813684 17.3429603,6.26742674 L17.3438184,6.26742674 Z M7.34038597,10.001716 L0.884725035,10.001716 C0.39610489,10.001716 0,10.3973682 0,10.88543 C0,11.3734918 0.39610489,11.769144 0.884725035,11.769144 L5.1307187,11.769144 L0.461670305,16.4302855 C0.238175013,16.6535254 0.150890164,16.9789046 0.232695116,17.283856 C0.314500067,17.5888074 0.552966701,17.8270015 0.858266943,17.908713 C1.16356718,17.9904244 1.48931866,17.9032393 1.71281395,17.6799994 L6.45308656,12.9442865 L6.45308656,17.1502853 C6.45308656,17.6383471 6.84919145,18.0339993 7.33781159,18.0339993 C7.82643174,18.0339993 8.2225404,17.6383471 8.2225404,17.1502853 L8.2225404,10.8828586 C8.22322202,10.6486498 8.13043863,10.4238238 7.96471837,10.258132 C7.79899811,10.0924403 7.57400514,9.99954458 7.33952784,10 L7.34038597,10.001716 Z" id="形状"></path>
                    </g>
                </g>
            </g>
        </g>
    </g>
</svg>