<?xml version="1.0" encoding="UTF-8"?>
<svg width="25px" height="24px" viewBox="0 0 25 24" version="1.1" xmlns="http://www.w3.org/2000/svg" xmlns:xlink="http://www.w3.org/1999/xlink">
    <title>切片</title>
    <g id="页面-1" stroke="none" stroke-width="1" fill="none" fill-rule="evenodd">
        <g id="工作流-数据" transform="translate(-93.000000, -383.000000)" fill="currentColor" fill-rule="nonzero">
            <g id="编组-6" transform="translate(80.000000, 373.000000)">
                <g id="icon/line/预览" transform="translate(13.748656, 10.000000)">
                    <g id="yulan-3" transform="translate(2.000000, 2.000000)">
                        <path d="M18.7976503,0 L1.19985002,0 C0.539932508,0 0,0.539932508 0,1.19985002 L0,18.7976503 C0,19.4575678 0.539932508,19.9975003 1.19985002,19.9975003 L7.68903885,19.9975003 C8.12898385,19.9975003 8.48893886,19.6375453 8.48893888,19.1976003 C8.4889389,18.7576553 8.12898387,18.3977003 7.68903885,18.3977003 L1.59980001,18.3977003 L1.59980001,1.59980003 L18.3977003,1.59980003 L18.3977003,8.05899264 C18.3977003,8.49893764 18.7576553,8.85889264 19.1976003,8.85889264 C19.6375453,8.85889264 19.9975003,8.49893764 19.9975003,8.05899264 L19.9975003,1.19985002 C19.9975003,0.539932508 19.4675665,0 18.7976503,0 Z" id="路径"></path>
                        <path d="M12.9983752,5.39932508 L5.39932508,5.39932508 C4.95938008,5.39932508 4.59942505,5.03937008 4.59942505,4.59942508 C4.59942505,4.15948008 4.95938006,3.79952507 5.39932508,3.79952507 L12.9983752,3.79952507 C13.4383202,3.79952507 13.7982752,4.15948008 13.7982752,4.59942508 C13.7982752,5.03937008 13.448319,5.39932508 12.9983752,5.39932508 Z M10.9986252,8.59892515 L5.39932508,8.59892515 C4.95938008,8.59892515 4.59942505,8.23897014 4.59942505,7.79902512 C4.59942505,7.3590801 4.95938006,6.99912512 5.39932508,6.99912512 L10.9986252,6.99912512 C11.4385702,6.99912512 11.7985252,7.35908012 11.7985252,7.79902512 C11.7985252,8.23897012 11.4485689,8.59892515 10.9986252,8.59892515 Z M8.99887514,11.7985252 L5.39932508,11.7985252 C4.95938008,11.7985252 4.59942505,11.4385702 4.59942505,10.9986252 C4.59942505,10.5586802 4.95938006,10.1987252 5.39932508,10.1987252 L8.99887514,10.1987252 C9.43882014,10.1987252 9.79877514,10.5586802 9.79877514,10.9986252 C9.79877514,11.4385702 9.44881889,11.7985252 8.99887514,11.7985252 Z M14.7481565,10.7486564 C12.5384327,10.7486564 10.7486564,12.5384327 10.7486564,14.7481565 C10.7486564,16.9578803 12.5384327,18.7476565 14.7481565,18.7476565 C16.9578803,18.7476565 18.7476565,16.9578803 18.7476565,14.7481565 C18.7476565,12.5384327 16.9578803,10.7486564 14.7481565,10.7486564 Z M14.7481565,17.1478565 C13.4283214,17.1478565 12.3484564,16.0679915 12.3484564,14.7481565 C12.3484564,13.4283215 13.4283214,12.3484565 14.7481565,12.3484565 C16.0679915,12.3484565 17.1478565,13.4283215 17.1478565,14.7481565 C17.1478565,16.0679915 16.0779902,17.1478565 14.7481565,17.1478565 Z" id="形状"></path>
                        <path d="M19.7675291,19.7675291 C19.4575678,20.0774903 18.9476315,20.0774903 18.6376703,19.7675291 L16.9378828,18.0677415 C16.6279215,17.7577803 16.6279215,17.247844 16.9378828,16.9378828 C17.247844,16.6279215 17.7577803,16.6279215 18.0677415,16.9378828 L19.7675291,18.6376703 C20.0774903,18.9476316 20.0774903,19.4475691 19.7675291,19.7675291 Z" id="路径"></path>
                    </g>
                </g>
            </g>
        </g>
    </g>
</svg>