<?xml version="1.0" encoding="UTF-8"?>
<svg width="20px" height="20px" viewBox="0 0 20 20" version="1.1" xmlns="http://www.w3.org/2000/svg" xmlns:xlink="http://www.w3.org/1999/xlink">
    <title>icon/line/代码</title>
    <g id="icon/line/代码" stroke="none" stroke-width="1" fill="none" fill-rule="evenodd" style="transform: scale(1.4);transform-origin: center center;">
        <g id="daima" transform="translate(4.000000, 5.000000)" fill="currentColor" fill-rule="nonzero">
            <path d="M3.37783618,1.34568928 C3.25312161,1.24569441 3.09366265,1.19959608 2.93482988,1.21761966 C2.77599711,1.23564323 2.63092155,1.31629867 2.53178332,1.44169527 L0.131633374,4.44188271 C-0.0438777913,4.66109609 -0.0438777913,4.9727162 0.131633374,5.19192957 L2.53178332,8.19211701 C2.74224126,8.43858454 3.11038424,8.47338918 3.36330313,8.27072981 C3.61622203,8.06807044 3.66250496,7.70119375 3.4678418,7.44207015 L1.3677106,4.81390595 L3.4678418,2.18574176 C3.67346409,1.92847481 3.63329409,1.55355478 3.37783618,1.34568928 Z M11.8683666,4.44188271 L9.46821668,1.44169527 C9.25775874,1.19522775 8.88961576,1.1604231 8.63669687,1.36308247 C8.38377797,1.56574184 8.33749504,1.93261853 8.5321582,2.19174213 L10.6322894,4.81390595 L8.5321582,7.44207015 C8.33749504,7.70119375 8.38377797,8.06807044 8.63669687,8.27072981 C8.88961576,8.47338918 9.25775874,8.43858454 9.46821668,8.19211701 L11.8683666,5.19192957 C12.0438778,4.9727162 12.0438778,4.66109609 11.8683666,4.44188271 L11.8683666,4.44188271 Z M7.0260641,0.013606055 C6.87007493,-0.020187468 6.70704974,0.00955912322 6.57304786,0.0962662234 C6.43904598,0.182973323 6.34511072,0.319495252 6.31201949,0.47563492 L4.51190703,8.87615974 C4.47076852,9.03558698 4.49694895,9.20491446 4.58431492,9.34447308 C4.67168088,9.48403169 4.81255566,9.58155864 4.9739359,9.61420585 L5.09994377,9.61420585 C5.38777744,9.62061044 5.63959247,9.42167656 5.69998126,9.14017624 L7.50009372,0.739651415 C7.53726918,0.580196455 7.50767026,0.412475264 7.41816008,0.275377391 C7.3286499,0.138279519 7.18700337,0.0437133835 7.0260641,0.013606055 Z" id="形状"></path>
        </g>
    </g>
</svg>