<?xml version="1.0" encoding="UTF-8"?>
<svg width="20px" height="20px" viewBox="0 0 20 20" version="1.1" xmlns="http://www.w3.org/2000/svg" xmlns:xlink="http://www.w3.org/1999/xlink">
    <title>icon/line/结束</title>
    <g id="icon/line/结束" stroke="none" stroke-width="1" fill="none" fill-rule="evenodd" style="transform: scale(1.4); transform-origin: center center;">
        <g id="ETL-jieshu" transform="translate(4.000000, 4.000000)" fill="currentColor" fill-rule="nonzero">
            <path d="M9.62018835,1.98172571 C9.98211255,2.25158824 10.1725409,2.40991365 10.4550922,2.71633639 C10.7864547,3.07570356 11.0211494,3.35147702 11.2994448,3.84873968 C11.8824467,4.89045614 12.0001311,5.64142477 11.9999999,6.62468866 C11.9999999,7.47468074 11.7977233,8.33242269 11.4745836,9.07663098 C11.1856047,9.74215817 10.6689454,10.4427131 10.1408758,10.8952979 C9.54518519,11.4058361 9.07776616,11.6867674 8.33960018,11.9664201 C7.6104801,12.242649 6.84640233,12.3413396 5.96531437,12.3302096 C5.07159015,12.3189131 4.27191543,12.1856938 3.60209733,11.9138785 C2.99786869,11.6686843 2.31482761,11.3008929 1.74857781,10.7679458 C1.17331711,10.2265219 0.827435627,9.77363938 0.519655559,9.10290179 C0.177250569,8.35670568 -0.00518269964,7.41340844 0.000112080531,6.59245438 C0.000112080531,6.10837091 0.053033423,5.66433291 0.160621146,5.21482183 C0.272315879,4.74813839 0.423329247,4.30410039 0.659766552,3.87501049 C0.90660709,3.42704938 1.14089017,3.06253312 1.430377,2.71033789 C1.73470682,2.34007708 1.94364734,2.10272031 2.27201495,1.87942717 C2.51153469,1.71654815 2.75476737,1.75774953 2.88986063,1.84923326 C2.94750754,1.88827168 3.00661687,1.93534021 3.0591585,2.01853111 C3.18446151,2.21692827 3.05478003,2.40821481 2.97158037,2.52205499 C2.87800373,2.65009017 2.66880052,2.8627086 2.46448367,3.08778814 C1.96453263,3.63856444 1.74277196,3.95128341 1.4829011,4.48798731 C1.080082,5.31989631 0.992074789,6.00276224 0.983755705,6.66846459 C0.974998769,7.36901955 1.11459309,7.97286288 1.34279012,8.50742133 C1.78675806,9.56212432 2.58384073,10.3982016 3.63710757,10.8455322 C4.17522135,11.0791323 5.126934,11.3340555 6.01900315,11.3446776 C6.75458585,11.3534346 7.66731262,11.1964752 8.19948918,10.9768863 C8.80079301,10.7287672 9.47216109,10.2325466 9.86329843,9.74215817 C10.1645458,9.36447149 10.5463395,8.81392287 10.7064864,8.35859718 C10.9010568,7.80540397 11.0312111,7.21109693 11.0279798,6.62468866 C11.0279798,5.91239941 10.8770014,5.20548693 10.5447107,4.57141464 C10.2807153,4.0676631 9.93626999,3.5947885 9.43638024,3.15704675 C9.26126777,3.00370403 9.12453696,2.89436492 8.92837282,2.74314137 C8.79496089,2.64029114 8.45634766,2.41552684 8.5497579,2.12363188 C8.61482194,1.92031331 8.78935645,1.79252334 8.96717481,1.76751352 C9.22186157,1.73169764 9.34110478,1.79928369 9.53929176,1.92513838 L9.62018835,1.98172571 L9.62018835,1.98172571 Z M5.9139199,6.31819587 C5.80007972,6.30943894 5.78256585,6.31235499 5.64245487,6.2306265 C5.49805297,6.14639353 5.40893363,5.95332934 5.42628113,5.77017801 L5.42628113,0.565895398 C5.42628113,0.327934398 5.43134263,0.267231316 5.54393933,0.151123091 C5.61399482,0.0788783639 5.68744801,0.00213257248 5.88545986,6.59244769e-05 C6.09562634,-0.00212331286 6.16568183,0.0504183178 6.25106198,0.12704152 C6.37812514,0.241074352 6.39117298,0.356911113 6.38689958,0.565895398 L6.38689958,5.77016925 C6.38022679,5.97010764 6.39117296,6.07081241 6.23792657,6.20872541 C6.18708379,6.25448041 6.13284332,6.30943018 5.96354547,6.31819587 L5.9139199,6.31819587 L5.9139199,6.31819587 Z" id="形状"></path>
        </g>
    </g>
</svg>