<?xml version="1.0" encoding="UTF-8"?>
<svg width="20px" height="20px" viewBox="0 0 20 20" version="1.1" xmlns="http://www.w3.org/2000/svg" xmlns:xlink="http://www.w3.org/1999/xlink">
    <title>icon/line/条件分支</title>
    <g id="icon/line/条件分支" stroke="none" stroke-width="1" fill="none" fill-rule="evenodd" style="transform: scale(1.4);transform-origin: center center;">
        <g id="ziyuan" transform="translate(4.000000, 4.000000)" fill="currentColor" fill-rule="nonzero">
            <path d="M7.71018818,9.45240216 C7.71025686,10.3579945 8.27907656,11.1659723 9.13159608,11.4714357 C9.9841156,11.776899 10.9366287,11.5140248 11.5118048,10.8145466 C12.0869809,10.1150683 12.1608774,9.12971388 11.6964629,8.35227159 C11.2320483,7.57482929 10.3293975,7.17282726 9.44085378,7.34771976 L7.24099147,3.81801992 C7.96763196,3.23511824 8.23495421,2.24983401 7.90257014,1.37960324 C7.57018606,0.509372466 6.71409585,-0.0468251182 5.78388744,0.00310555207 C4.85367902,0.0530362224 4.06204612,0.697678416 3.824726,1.59848912 C3.58740588,2.49929982 3.95866219,3.45030717 4.74352439,3.95207612 L2.62007413,7.36112538 C2.46485502,7.3255011 2.30611044,7.30751305 2.14685574,7.3075029 C1.11228447,7.30665989 0.224544169,8.04443629 0.0360928442,9.06169954 C-0.152358481,10.0789628 0.412190101,11.0857804 1.37840905,11.4555903 C2.344628,11.8254002 3.43713312,11.452802 3.97603728,10.5696708 C4.51494144,9.68653958 4.34665036,8.54457855 3.57589486,7.85445221 L5.79787644,4.29123832 L5.90042944,4.29123832 C6.01900105,4.29096429 6.13735631,4.28110135 6.25433781,4.26174595 L8.46961658,7.81423535 C7.98716838,8.22149345 7.70922667,8.82104291 7.71018818,9.45240216 Z M5.90042944,1.07388943 C6.49272701,1.07388943 6.97287906,1.55404148 6.97287906,2.14633906 C6.97287906,2.73863663 6.49272701,3.21878868 5.90042944,3.21878868 C5.30813186,3.21878868 4.82797981,2.73863663 4.82797981,2.14633906 C4.82797981,1.86190773 4.94096971,1.58912597 5.14209303,1.38800265 C5.34321635,1.18687934 5.61599811,1.07388943 5.90042944,1.07388943 L5.90042944,1.07388943 Z M2.14685574,10.5248518 C1.55455816,10.5248518 1.07440611,10.0446997 1.07440611,9.45240216 C1.07440611,8.86010459 1.55455816,8.37995254 2.14685574,8.37995254 C2.73915331,8.37995254 3.21930536,8.86010459 3.21930536,9.45240216 C3.21930536,10.0446997 2.73915331,10.5248518 2.14685574,10.5248518 L2.14685574,10.5248518 Z M10.9275371,9.45240216 C10.9275371,10.0446997 10.447385,10.5248518 9.85508745,10.5248518 C9.26278988,10.5248518 8.78263783,10.0446997 8.78263783,9.45240215 C8.78263783,8.86010458 9.26278987,8.37995253 9.85508744,8.37995253 C10.1395188,8.37995253 10.4123005,8.49294243 10.6134239,8.69406575 C10.8145472,8.89518907 10.9275371,9.16797083 10.9275371,9.45240216 L10.9275371,9.45240216 Z" id="形状"></path>
        </g>
    </g>
</svg>