<?xml version="1.0" encoding="UTF-8"?>
<svg width="20px" height="20px" viewBox="0 0 20 20" version="1.1" xmlns="http://www.w3.org/2000/svg" xmlns:xlink="http://www.w3.org/1999/xlink">
    <title>icon/line/知识检索</title>
    <g id="icon/line/知识检索" stroke="none" stroke-width="1" fill="none" fill-rule="evenodd" style="transform: scale(1.4); transform-origin: center center;">
        <g id="zhishi" transform="translate(4.000000, 5.000000)" fill="#14B364" fill-rule="nonzero">
            <path d="M5.99534523,10.4453064 C5.73467804,10.4453064 5.4833204,10.3801396 5.25058185,10.2591156 L3.68657874,9.43987587 C3.6121024,9.4026377 3.52831652,9.38401862 3.4352211,9.38401862 L1.53607448,9.38401862 C0.707525213,9.38401862 0.0186190846,8.70442203 0,7.87587277 L0,1.51745539 C0.0186190846,0.679596587 0.707525213,0 1.53607448,0 L3.38867339,0 C3.70519783,0 4.00310318,0.0930954228 4.26377036,0.260667184 L4.65477114,0.521334368 C4.77579519,0.595810706 4.85027153,0.716834756 4.87820016,0.85647789 C4.90612878,0.996121024 4.87820016,1.13576416 4.80372382,1.25678821 C4.70131885,1.40574088 4.54305663,1.48952676 4.35686579,1.48952676 C4.25446082,1.48952676 4.15205586,1.46159814 4.06826998,1.40574088 L3.6772692,1.1450737 C3.59348332,1.08921645 3.49107836,1.06128782 3.38867339,1.06128782 L1.5640031,1.06128782 C1.55469356,1.06128782 1.54538402,1.06128782 1.53607448,1.06128782 C1.29402638,1.06128782 1.08921645,1.24747867 1.06128782,1.48952676 L1.06128782,1.49883631 L1.06128782,7.87587277 L1.06128782,7.88518231 C1.08921645,8.12723041 1.28471683,8.31342126 1.53607448,8.31342126 C1.54538402,8.31342126 1.55469356,8.31342126 1.5640031,8.31342126 L3.4352211,8.31342126 C3.69588829,8.31342126 3.94724593,8.37858805 4.17998448,8.4996121 L5.75329713,9.31885182 C5.82777347,9.35608999 5.91155935,9.37470908 6.00465477,9.37470908 C6.09775019,9.37470908 6.17222653,9.35608999 6.24670287,9.31885182 L7.82001552,8.49030256 C8.04344453,8.36927851 8.30411171,8.30411171 8.5647789,8.30411171 L10.4359969,8.30411171 C10.4453064,8.30411171 10.454616,8.30411171 10.4639255,8.30411171 C10.7059736,8.30411171 10.9107836,8.11792087 10.9387122,7.87587277 L10.9387122,7.86656323 L10.9387122,1.49883631 L10.9387122,1.48952676 C10.9107836,1.24747867 10.7152832,1.06128782 10.4639255,1.06128782 C10.454616,1.06128782 10.4453064,1.06128782 10.4359969,1.06128782 L7.82932506,1.06128782 C7.82001552,1.06128782 7.81070597,1.06128782 7.80139643,1.06128782 C7.55934833,1.06128782 7.3545384,1.24747867 7.32660978,1.48952676 L7.32660978,1.49883631 L7.32660978,6.33979829 C7.32660978,6.6283941 7.08456168,6.8704422 6.79596587,6.8704422 C6.50737005,6.8704422 6.26532196,6.6283941 6.26532196,6.33979829 L6.26532196,1.50814585 C6.2746315,0.679596587 6.96353763,0 7.80139643,0 L10.4639255,0 C11.2924748,0 11.9813809,0.679596587 12,1.50814585 L12,7.86656323 C11.9906905,8.69511249 11.3017843,9.37470908 10.4639255,9.37470908 L8.5647789,9.37470908 C8.48099302,9.37470908 8.39720714,9.39332816 8.31342126,9.43987587 L6.74010861,10.2591156 C6.50737005,10.3801396 6.25601241,10.4453064 5.99534523,10.4453064 Z" id="路径"></path>
            <path d="M3.00698216,4.14274631 C2.71838635,4.14274631 2.47633825,3.90069822 2.47633825,3.6121024 C2.47633825,3.32350659 2.71838635,3.08145849 3.00698216,3.08145849 L4.06826998,3.08145849 C4.35686579,3.08145849 4.59891389,3.32350659 4.59891389,3.6121024 C4.59891389,3.90069822 4.35686579,4.14274631 4.06826998,4.14274631 L3.00698216,4.14274631 Z" id="路径"></path>
        </g>
    </g>
</svg>