<?xml version="1.0" encoding="UTF-8"?>
<svg width="20px" height="20px" viewBox="0 0 20 20" version="1.1" xmlns="http://www.w3.org/2000/svg" xmlns:xlink="http://www.w3.org/1999/xlink">
    <title>icon/line/模板转换</title>
    <g id="icon/line/模板转换" stroke="none" stroke-width="1" fill="none" fill-rule="evenodd" style="transform: scale(1.4);transform-origin: center center;">
        <g id="moban-2" transform="translate(4.000000, 4.000000)" fill="currentColor" fill-rule="nonzero">
            <path d="M10.909048,8.59851167 L11.9421349,10.6652308 C12.026933,10.8342427 12.018048,11.0351341 11.9186603,11.1959999 C11.8192726,11.3568658 11.6435922,11.4547059 11.4545004,11.4545042 L5.99997642,11.4545042 C5.8106621,11.4552043 5.63457764,11.3575001 5.53499179,11.1964936 C5.43540593,11.0354872 5.42662214,10.834304 5.51179652,10.6652308 L5.66288684,10.3635956 L1.9090834,10.3635956 C1.45721584,10.3635956 1.0909048,9.9972846 1.0909048,9.54541703 L1.0909048,4.89543531 C0.432543746,4.39689181 0,3.61471307 0,2.72726201 C0,1.22344973 1.22344973,0 2.72726201,0 C3.61471307,0 4.39634636,0.432543759 4.89488985,1.0909048 L10.0908694,1.0909048 C10.542737,1.0909048 10.909048,1.45721584 10.909048,1.9090834 L10.909048,8.59851167 Z M8.72723843,6.67415559 L6.88251841,10.3635956 L10.5719585,10.3635956 L8.72723843,6.67415559 Z M2.1818096,5.39943333 L2.1818096,9.27269083 L6.20833924,9.27269083 L8.23905854,5.21070679 C8.42451236,4.84089006 9.02996452,4.84089006 9.21487288,5.21070679 L9.81814324,6.41670205 L9.81814324,2.1818096 L5.39888787,2.1818096 C5.58021562,3.07858719 5.30035509,4.00658058 4.65345947,4.65358588 C4.00656385,5.30059118 3.07861792,5.58060904 2.1818096,5.39943333 Z M2.72726201,4.36361921 C3.63099714,4.36361921 4.36361921,3.63099714 4.36361921,2.72726201 C4.36361921,1.82352688 3.63099714,1.0909048 2.72726201,1.0909048 C1.82352688,1.0909048 1.0909048,1.82352688 1.0909048,2.72726201 C1.0909048,3.63099714 1.82352688,4.36361921 2.72726201,4.36361921 Z" id="形状"></path>
        </g>
    </g>
</svg>